<svg width="1080" height="1080" xmlns="http://www.w3.org/2000/svg" xml:space="preserve" version="1.1">
 <defs>
  <radialGradient gradientTransform="matrix(1,0,0,1,-242,121.20001219213009)" gradientUnits="userSpaceOnUse" r="540" cy="418.7721" cx="782.02" id="SVGID_1_">
   <stop stop-color="#2EAA01" stop-opacity="1" offset="0.7295"/>
   <stop stop-color="#FFFFFF" stop-opacity="0" offset="1"/>
  </radialGradient>
 </defs>
 <g>
  <title>Layer 1</title>
  <g id="svg_7">
   <path id="svg_1" enable-background="new" fill="#2EAA01" display="none" d="m510.9,81.60001c1.6,2.2 4.4,3.2 7,3c13.7,-0.1 27.3,-0.1 41,0c3.6,0 7.6,0.6 10,-2.9l-6.7,8.4c4.8,-8.6 14.7,-1.1 20.7,-7l-6.3,6c4.7,-4.5 11.7,-0.2 16,-5.1l-6.7,8.4c3.2,-6.3 10.2,-3.4 14.7,-7l-6.1,5.9c4.2,-2.6 9.6,-2 13.4,-5.5l-7,8.6c3.5,-5 10,-3.9 14.1,-7.7l-7,8.5c4,-2.5 8.2,-5 12.5,-7l-5.8,6.2c3.9,-1.6 7.7,-3.4 11.3,-5.8l-7,8.6c4,-2.5 8.2,-4.9 12.5,-7l-5.6,6.1c3.5,-1.6 6.9,-3.6 10,-5.8l-6.3,9.2c3.6,-2.7 7.3,-5.5 11.1,-7.9l-5.9,6.7c3.6,-1.7 7,-3.8 10.2,-6.1l-6.3,9.3c3.5,-2.7 7.1,-5.4 10.6,-8.1l-5.2,8.7c3.2,-2.6 6.3,-5.2 9.5,-7.8l-6,9.4c3.2,-2.6 6.3,-5.2 9.2,-8l-1.7,5.2l0.6,5.1l0.8,-6.1c0.7,-0.8 2,-2.5 2.7,-3.4c0,2.6 0.1,7.9 0.2,10.6c0.9,-3 2.6,-8.9 3.5,-11.8l-2.7,12.1c2.4,-3 4.9,-6.1 7.3,-9.2l-1.1,4.9l-0.1,6.3c1.2,-3 3.5,-8.9 4.6,-11.9l-3.3,11.2c-0.8,-5.6 12.8,-9.6 5.9,2l1.3,-6.2l2,-5.1l-2.7,11.8c0.7,-4.3 4.5,-5.8 7.8,-7.3l-4.9,7.8l3.9,-3.7l3.1,-5.9l-3.2,11.8c1.2,-1.9 3.5,-5.7 4.6,-7.6c0,2.2 0.1,6.6 0.1,8.8c1.1,-2.8 3.3,-8.4 4.4,-11.2l-3.9,12l3.5,-5.4c1,-1 3.1,-2.9 4.1,-3.8l-5.1,6.2c1.2,-0.7 3.7,-2.2 4.9,-2.9c0,1.9 0,5.7 -0.1,7.5l1.8,-5.7l2.7,-4.8l-4.1,11.2c1.9,-2.3 5.7,-6.8 7.6,-9.1l-1.9,5.2l-0.1,6.6c1.1,-3.1 3.4,-9.2 4.6,-12.3l-3.2,11.5c1.3,-2.3 3.9,-7 5.2,-9.3l-3.7,9.6c1.6,-2.2 4.8,-6.6 6.4,-8.8l-4,9.8c1.5,-2 4.5,-5.8 6,-7.8l-3.6,9.4c1.9,-2.2 5.7,-6.6 7.7,-8.8l-5.1,8.2c1.5,-1.7 4.5,-5 6,-6.6l-3.7,9.4c1.5,-2.4 4.6,-7.3 6.2,-9.7l-3.8,9.7c1.7,-2.2 5.1,-6.6 6.8,-8.8l-4.2,10.4c1.5,-2.2 4.5,-6.7 5.9,-8.9l-3.4,10c1.4,-2.2 4.1,-6.6 5.4,-8.8l-3.7,10.2c1.8,-2.2 5.4,-6.5 7.1,-8.6l-4.5,7.6c1.4,-1.5 4.2,-4.4 5.7,-5.8l-3.1,8.7c1.4,-2.3 4.1,-7 5.5,-9.3l-3.4,10.1c1.3,-2.2 4,-6.7 5.4,-8.9l-3.5,9.5c1.3,-2.1 4,-6.2 5.4,-8.3l-3.3,9.9c1.3,-2.3 4,-6.9 5.4,-9.2l-3.3,10.1c1.3,-2.2 3.9,-6.7 5.2,-8.9l-2.7,10c1.2,-2.3 3.6,-7 4.8,-9.3l-3,10.7c1.3,-2.5 3.9,-7.5 5.2,-10l-3.4,9.8c1.4,-2 4.1,-6 5.4,-8.1l-4,8.1c1.6,-1.6 4.8,-4.8 6.3,-6.4l-4.8,7.5c1.7,-1.6 5.2,-4.9 6.9,-6.5l-5,7.6c1.7,-1.6 5.1,-4.9 6.8,-6.5l-4.7,7.6c1.6,-1.7 4.7,-5.2 6.2,-6.9l-3.7,9.1c1.4,-2.2 4.3,-6.5 5.7,-8.7l-3.6,9.7c1.5,-2.2 4.4,-6.6 5.8,-8.8l-4.2,8.6c1.7,-1.7 5,-5.1 6.7,-6.8l-4.2,5.6l4.8,-2.8l-4,5.2c1.5,-1.4 4.5,-4.1 6,-5.4l-4,6.9c1.4,-1.6 4.1,-4.8 5.5,-6.4l-3.8,8.7c1.8,-2 5.4,-6.1 7.2,-8.1l-4.3,5.7l4.3,-2.4l-3.9,5.1c1.4,-1.4 4.2,-4.2 5.7,-5.6l-3.2,8.7c1.4,-2.3 4.1,-6.9 5.5,-9.1l-3.4,8.7c1.3,-1.8 4,-5.3 5.4,-7l-3.3,6.1l3.4,-3.6l-1.6,7c1,-1.9 3.1,-5.7 4.1,-7.6l-3,9.3c1.3,-2.2 4,-6.6 5.4,-8.8l-2.6,6.1c0.9,-1 2.6,-3 3.4,-3.9l-0.3,5.6c0.8,-0.8 2.3,-2.3 3.1,-3.1c-0.9,1.6 -2.7,4.8 -3.7,6.4c1.6,-1.5 4.9,-4.5 6.5,-6l-3.5,4.7c1,-0.4 3,-1.4 4,-1.8l-1.1,3.3l2.9,-3.7l-1.4,3.4l2.8,-0.9l-4.2,4.5l3.3,-1.5l1.6,-3.7l-0.2,3.6l2.4,-0.9l-4,3.8c1.5,-0.8 4.6,-2.3 6.2,-3.1c-0.8,1.5 -2.5,4.5 -3.4,6c1.6,-1.5 4.8,-4.4 6.4,-5.9l-3.7,4.8l4.2,-2.7l-2.9,2.9c1.3,-0.2 3.9,-0.7 5.2,-0.9c-0.8,1.3 -2.3,3.8 -3,5.1c1.8,-0.9 5.4,-2.8 7.1,-3.7c-1,1.5 -3.1,4.6 -4.1,6.2c1.3,-1.4 4,-4.1 5.3,-5.4l-2.4,4.7l3.5,-3.3l-1.4,3.1l2.7,-0.8l-4,4.7l3.1,-2.4l2.1,-3.3l-0.7,4l1.7,-0.9l-1.1,1.7l3,-0.5l-4,4l3.2,-1.2l1.5,-4.1l0,4.1l1.8,-1.1l-2.4,3.8l3.9,-3.1l-2,2.7c1.7,-0.1 3.4,-0.2 5.1,-0.2c0.3,1.3 0.7,2.6 0.9,4l3.4,-2.9l-3,3.6c1.6,-0.1 4.8,-0.3 6.4,-0.3c-1.3,0.6 -3.9,1.7 -5.2,2.2l4.4,-0.3l-3.9,4.2l3,-1.5l1.9,-3.2c-0.1,1.3 -0.4,3.7 -0.5,5c0.8,-0.6 2.3,-2 3.1,-2.6l-3.1,4.2l4.8,-3.7l-3.2,4c1.2,-0.7 3.7,-2 5,-2.6l-2.3,2.9l2.2,-0.8l-0.5,2.1l1.9,-1.7l-1,2.4l2.3,-1.1l-2.1,2.2l2.7,-0.8l-1,1.5l2.9,-0.4l-3.9,4.1l3,-1.5l2,-3.8c-0.4,1.4 -1.1,4.1 -1.5,5.5c0.9,-0.6 2.6,-1.7 3.4,-2.3l-0.7,2.6l1,-0.7c0.8,1.3 1.6,2.5 2.3,3.8l1.5,-1.1l-0.9,1.9l2.9,-0.7l-4.5,3.8c2.3,-1.1 4.9,-1.8 7.4,-2.3c-0.1,1.5 -0.2,3.1 -0.4,4.6l2.2,-1.6l-0.7,2l2.6,-0.4c-0.5,0.6 -1.4,1.9 -1.8,2.6l3.2,-0.8l-2,1.4c1.4,0.3 2.9,0.6 4.4,1c0.8,1.2 2,2 3.2,2.9l-2,2.4l2.3,-1.5l-1.6,3.8l3,-3.9l-1.2,2.8l2.6,-1.3l-3.6,3.3l3.7,-1.9l-1.2,2.1l2.2,-1.7l-0.8,2.5l1.8,-0.7l-0.9,1.6l1.9,-0.5l-0.7,2l1.7,-1.1l-0.8,1.9l1.7,-0.9c-0.2,1 -0.5,2.9 -0.6,3.8c1,-0.6 2.9,-1.6 3.8,-2.2c-0.7,0.8 -2.1,2.4 -2.9,3.2l2.8,-0.8l-0.8,2.3c0.7,-0.6 2.1,-1.7 2.8,-2.3l-0.8,2.7l1.6,-1.2l-1.4,2.5l2.7,-1.9l-1.3,2.5l2,-0.7l-0.8,1.4l4,-0.1c-1.6,0.8 -4.7,2.3 -6.3,3.1l5.2,-1.4c-0.6,1.3 -1.9,3.9 -2.5,5.3c1.2,-1.1 3.5,-3.4 4.7,-4.5l-1.5,3.3l2.4,-2.2l-0.8,2.9l2.3,-1l-1.8,2.9l2.5,-2l-1.1,2l2,-0.7l-2.4,3.9l4.9,-4.5c-0.9,1.5 -2.6,4.4 -3.4,5.8l4.4,-3.6l-4.2,5.3l4.6,-3.8l-2.2,3.4l3,-2l-1.8,3c0.8,-0.6 2.4,-1.9 3.2,-2.5c-0.8,1.7 -2.4,5.1 -3.2,6.8l4,-3.8l-0.7,3.3l1.6,-1.5l-0.6,4.4c1.2,-1 3.6,-2.9 4.8,-3.9c-1,1.2 -2.9,3.5 -3.9,4.7l4.7,-3.3c-1.4,1.5 -4.1,4.6 -5.4,6.1l4.7,-3.7c-0.4,1.3 -1.3,3.9 -1.7,5.2c0.9,-0.8 2.7,-2.5 3.6,-3.4l-0.8,2.4l3.9,-0.4l-3.3,2l-2.3,3l4.5,-3.9c-0.2,0.9 -0.6,2.6 -0.8,3.5c0.9,-0.1 2.6,-0.4 3.5,-0.5c-0.1,1.2 -0.2,3.6 -0.3,4.7c0.7,-0.6 2,-1.8 2.6,-2.3c-0.3,1 -0.9,3.2 -1.2,4.2l4.2,-3.2c-1.5,1.7 -4.6,5 -6.1,6.7c1.5,-0.9 4.6,-2.8 6.1,-3.7c-0.5,1.2 -1.4,3.6 -1.9,4.8l4.7,-3.7c-1.3,1.5 -3.9,4.5 -5.2,6l4,-2.8l-0.2,1.7l1.4,-0.5l-0.6,1.2l4.5,0.3l-4.3,1.3l-2.5,3.1c1.4,-0.8 4.2,-2.3 5.7,-3.1l-0.3,1.7c-0.8,1.1 -2.3,3.4 -3.1,4.6l4.9,-4.1l-2.1,4.4l5,-3.9c-1.5,1.7 -4.6,5 -6.1,6.7c1.7,-1.1 5.1,-3.3 6.8,-4.3c-1,1.1 -3.1,3.4 -4.1,4.6l4.1,-1.6l-0.5,1.9l4.1,-0.9c-1.6,1.1 -4.7,3.3 -6.3,4.4l7,-3.3c-1.5,1.5 -4.5,4.5 -5.9,5.9l6.8,-4c-1.4,1.6 -4.2,4.7 -5.6,6.2l5,-4l-1.2,2.3l4.5,0.2l-4.1,1.4l-2.4,3.4c1.3,-1 4,-2.9 5.4,-3.8c0.2,1.6 0.5,3.2 0.9,4.7l-1.3,2.3l5,-3.8c-1.4,1.6 -4.4,4.8 -5.8,6.4l5.1,-3.5l-2.2,3.8l5.6,-4c-2.1,1.7 -6.1,5 -8.2,6.7l9.1,-3.6c-1.9,1.1 -5.8,3.4 -7.7,4.5l7.5,-2l-3.8,3.2l5.7,-2.5c-0.9,1 -2.7,2.9 -3.6,3.9l6.1,-2.6c-2.4,1.4 -7.2,4.3 -9.6,5.8l7.8,-2.8c-1.2,1.3 -3.4,3.9 -4.6,5.2l4.9,-3.8l-2.4,4.4l5.5,-4.1c-1.7,1.6 -5.2,4.8 -7,6.4l9.1,-4c-2.4,1.6 -7.1,4.7 -9.5,6.2l7.4,-3.2l-2.6,2l5.4,-1c-1.5,1.2 -4.6,3.5 -6.1,4.7l7.9,-4.1c-2.2,1.5 -6.5,4.6 -8.7,6.2l10.1,-3.5c-2.3,1.3 -7,3.8 -9.4,5l9.4,-2.5c-1.7,1.4 -5.1,4 -6.8,5.4l8.1,-4.3c-2,1.5 -6.1,4.4 -8.1,5.9l9.9,-3.6c-2.4,1.3 -7.2,3.8 -9.6,5.1l10.5,-3c-2.3,1.4 -6.9,4 -9.3,5.4l9.3,-3c-1.6,1.2 -4.7,3.6 -6.2,4.9l7.1,-3.5l-5.5,4l8.7,-2.8l-4.8,2.3l-6.6,1.9c2.8,0 8.4,0.1 11.2,0.1l-4.3,1.5l-3.4,3.7l7.6,-5c-1.7,1.7 -5,5.2 -6.6,7l7.7,-5c-1.6,1.6 -4.8,4.9 -6.4,6.6l8,-4.2c-2,1.5 -6.1,4.4 -8.1,5.9l9.6,-3.9c-2.3,1.4 -6.8,4.1 -9.1,5.5l10.1,-3.4c-2.3,1.3 -6.8,4 -9.1,5.4l9.6,-3.4c-2,1.5 -6.1,4.4 -8.2,5.9l9.3,-4.6c-2.5,1.8 -7.4,5.5 -9.9,7.3l11.3,-3.7c-2.3,1.4 -6.8,4.1 -9,5.5l9,-3.1c-1.7,1.5 -5,4.5 -6.6,6l8.1,-5c-2.2,1.9 -6.6,5.8 -8.8,7.7l9.5,-3.7l-2.8,1.9c0.8,1.4 1.4,2.8 2,4.2l-0.3,0.7c0.8,1.3 1.6,2.6 2.3,4.1c-1.4,1.4 -4.1,4.1 -5.4,5.5l9.7,-5.6c-2.4,1.8 -7.1,5.4 -9.5,7.2l10.9,-3.4c-2.4,1.3 -7.2,3.8 -9.6,5.1l11.6,-3c-3,1 -9,3 -12,4l5.8,1.3l5.7,-2.9c-2.4,1.7 -7,5.2 -9.4,7l9.1,-3.5c-1.2,1.6 -3.7,4.9 -4.9,6.6l6.9,-5.4c-1,1 -3,3.1 -4,4.1l-5,3.4l11.8,-4l-5.3,2.6l-7,2.1c3.5,0 10.4,0.1 13.9,0.2c-3.3,0.6 -9.9,1.9 -13.2,2.6l6.6,0.4l5.4,-2.3c-6.1,1.5 -1.9,6.4 -0.8,9.6c-1.5,1.5 -4.4,4.5 -5.8,6l10.5,-5c-1.4,1 -4.1,3.1 -5.5,4.1c1.1,0.5 2.2,1.1 3.2,1.7c0.2,3.7 0.7,9.3 -7.2,5.4l12.7,0.9c-2.6,0.3 -7.8,0.8 -10.4,1.1l7.7,0.8c-1,3 -2.9,5.5 -4.3,8.2l7.9,-6c-2.7,3.3 -5.4,6.6 -8.1,9.9l8.9,-5.8c-2.1,3.1 -4,6.3 -5.6,9.7l6.2,-5.3c-2.4,3.2 -4.8,6.3 -7.4,9.4l8.6,-5.6c-2.3,3.4 -4.1,7.1 -5.6,11l5.7,-5.4c-1.6,3.4 -3.2,6.8 -4.7,10.3l6.2,-5.5c-2.3,3.5 -4.9,6.8 -7.9,9.8l9.7,-5.3c-2.9,3.4 -5.3,7.2 -7.3,11.2l8.2,-6.3c-2.7,3.9 -5.4,7.9 -7.8,12l8.7,-7c-2.3,3.9 -4.5,7.8 -6.5,11.9l7.2,-5.7c-2.5,4.4 -3.9,9.5 -7.8,13.1l8.6,-5.8c-3,3.9 -2.5,9.3 -6.4,12.8l7.9,-6.3c-5,3.7 -1,11 -7,14.3l7.9,-6.2c-6.1,4.6 0.7,13.4 -7,17.3l8,-6.3c-6.7,5.3 1.7,15.6 -7.7,19.7l8.7,-5.4c-3.3,1.5 -2.9,4.9 -2.9,7.7c0.1,13.7 0.1,27.4 0,41.1c-0.1,2.7 0.6,5.1 3,7l-8.4,-6.7c8.4,4.8 1.4,14.4 6.7,20.4l-5.8,-6.1c5.1,5 -0.2,12.7 5.4,17.3l-7.5,-5.9c4.6,3.5 2.7,9.5 5.9,13.7l-5.8,-6.1c2.5,4.2 1.9,9.6 5.4,13.3l-8.4,-6.8c4.7,3.5 3.6,9.8 7.5,13.8l-9,-6.1c2.8,3.9 5.7,7.9 8,12l-8.4,-6.6c2.1,3.6 4.7,7.3 6.6,11.1l-5.7,-5.5c1.9,3.3 2.7,6.9 2.9,10.7l-2.7,-1.1l-5.3,0.4l6.1,0.9c0.9,1.3 2.8,4 3.7,5.4l-7.4,-5.4c1.8,3.3 3.9,6.5 6.4,9.3l-9.5,-5.2c2.7,3.6 5.7,7.4 8.4,11.1l-9.5,-6.1c2.7,3.4 5.6,6.8 8.5,10.1l-8.9,-5.6c1.2,1.4 3.6,4.3 4.8,5.8c-0.3,2.8 -1.5,5.4 -1.8,8.2c-1,3 -2.4,6 -2.3,9.2c-1.8,0.1 -5.4,0.2 -7.2,0.3c2.8,0.8 8.5,2.4 11.3,3.2l-12,-2.2c2.5,1.1 7.4,3.4 9.9,4.5l-11.5,-2.2c3.9,1.9 7.2,4.5 9.9,7.8l-9.3,-5.3c2.2,2 6.7,5.9 8.9,7.9l-10,-4.9c2.3,1.8 7,5.5 9.4,7.3l-10.3,-4.4c2,2 5.9,6 7.9,8l-4.4,-2.9l-6.6,1.6c3.2,0.6 9.6,1.7 12.9,2.2c-3.7,0.1 -10.9,0.4 -14.6,0.6c3.3,0.6 10,1.8 13.3,2.5l-11.5,0.4c2.1,0.7 6.3,2.2 8.4,3l-10.7,-2.2l4.7,2.6c1.4,0.3 4.2,1 5.5,1.3c-3,0.1 -9,0.2 -12,0.3c3.1,0.9 9.3,2.6 12.3,3.5l-10.9,-2.1c2.1,1.2 6.2,3.5 8.2,4.7l-8.8,-3.5c1.3,1.6 4,4.9 5.3,6.6l-1.1,-0.3c-0.6,1.4 -1.3,2.9 -1.8,4.4l-7.2,-2.4c2.4,1.8 7.2,5.4 9.5,7.2l-8.3,-5.1c1.7,1.6 5,4.8 6.7,6.3l-8.1,-4.3c1.9,1.5 5.6,4.5 7.5,6.1l-9.3,-3.7c2.3,1.7 6.9,5.2 9.2,6.9l-10,-4.4c2,1.7 5.9,5.2 7.9,6.9l-7.7,-4.8c1.3,1.6 4,4.7 5.3,6.2l-9,-3c2.4,1.7 7.2,5 9.6,6.7l-7.1,-4.2c1.3,1.4 3.9,4.3 5.2,5.7l-7.2,-4.4c1.7,1.6 5.1,4.6 6.8,6.2l-9.2,-3.4c2.3,1.4 6.8,4.1 9.1,5.5l-10,-3.4c2.3,1.4 6.8,4.1 9,5.4l-9.6,-3.6c2.1,1.4 6.2,4 8.3,5.4l-9.8,-3.2c2.3,1.3 6.8,4 9.1,5.3l-10.3,-3.1c2.4,1.4 7.1,4.3 9.5,5.8l-9.7,-4.5c2,2 6.2,6 8.2,8l-6.8,-5.3l4.1,4.8l-8,-3.7c2.3,1.5 6.8,4.6 9,6.2l-9.8,-3.7c2.1,1.4 6.3,4.3 8.4,5.7l-8.3,-4c1.8,1.4 5.4,4.3 7.1,5.7l-9.1,-4c2,1.7 6,4.9 8,6.6l-8.2,-4.6c1.8,1.4 5.5,4.2 7.3,5.6l-9.3,-3.1c2.1,1.3 6.2,3.9 8.3,5.3l-9.9,-4c2.4,1.7 7.3,5.1 9.7,6.8l-7.1,-4l4.6,5.2l-5.7,-4.7c0.7,1.3 2.1,3.8 2.8,5.1l-6.9,-2.4c2.3,1.4 6.8,4.2 9,5.5l-9.5,-4.1c1.9,1.7 5.8,5 7.7,6.6l-6,-4.3l4.1,4.8l-4.2,-3c0.8,1 2.4,2.9 3.2,3.9l-8.4,-1.7c2.3,0.8 6.9,2.4 9.2,3.2l-8.4,0.3c1.7,0.6 5,1.8 6.7,2.4l-6.1,-1.2l4.1,2.3l-8.3,-2.6c2.2,1.3 6.5,3.8 8.6,5l-10.1,-3.1l4.7,2.7l5,1l-8.9,0.6c1.8,0.3 5.3,1 7.1,1.3l-4.5,0.4c0.2,0.7 0.6,2 0.8,2.6c-1.4,-0.8 -4.3,-2.5 -5.7,-3.3c0.8,1.1 2.4,3.3 3.3,4.4l0.2,1.9c-1.3,-0.8 -3.9,-2.3 -5.2,-3c0.9,1.5 2.8,4.5 3.8,5.9c-1.6,-0.8 -4.8,-2.3 -6.4,-3c1.5,1.5 4.7,4.3 6.2,5.8l-7.3,-4.1c1.6,1.7 4.7,5 6.3,6.7l-5.9,-4.6l2.5,3.9l-0.5,0.5l-0.4,0.6l-0.5,0.5c-0.4,0.3 -1.1,0.8 -1.4,1l-1,0.6c0.9,0.4 2.6,1.2 3.5,1.5l-4.3,0c0.2,0.7 0.5,2.2 0.7,2.9c-1.5,-0.9 -4.5,-2.8 -6,-3.7c1.5,1.6 4.6,4.8 6.1,6.4l-4.3,-3l1.4,3.6l-4.6,-3.9c0.9,1.4 2.6,4.2 3.4,5.7c-1.5,0 -4.4,0 -5.9,0c1.3,0.5 3.8,1.4 5.1,1.9l-2.8,-0.1c0.1,1.1 0.2,3.4 0.2,4.5c-0.8,-1.5 -2.3,-4.5 -3.1,-6l2.1,6.3l-2.4,-4.2c0.2,1.6 0.5,4.7 0.6,6.3c-1.1,-0.7 -3.4,-2.2 -4.5,-2.9l3.8,3.6l-3.7,-0.9c0.4,1 1.2,2.9 1.6,3.9c-0.9,-0.4 -2.7,-1.3 -3.6,-1.7c0.1,1.1 0.3,3.2 0.4,4.2l-4.6,-4.1l1.9,3.8l4.9,1l-8.6,0.8c1.9,0.3 5.7,1 7.6,1.3c-3.3,0.2 -6.5,0.4 -9.7,0.5l2.9,1.6l2.8,2.9l-4.5,-3.1c0.8,1 2.5,2.9 3.3,3.9c-1.2,-0.2 -3.7,-0.6 -4.9,-0.8l2.2,1.9l-2.9,-0.8l0.9,2.5l-4.6,-3.8l2.4,3l3.2,2.2l-4.1,-0.9l1.7,1.7l-2.5,-0.7l0.6,2.8c-0.9,-0.9 -2.7,-2.8 -3.6,-3.7c0.4,1.4 1.3,4.1 1.7,5.5l-1.8,-0.4c0.2,0.6 0.5,1.8 0.7,2.4c-0.9,-0.1 -2.8,-0.3 -3.7,-0.4c0.1,0.4 0.4,1.2 0.6,1.6c-1.4,0.7 -2.3,1.9 -2.6,3.5c-0.5,-0.4 -1.6,-1.2 -2.1,-1.6l1.2,2.7c-1.4,-0.4 -4.1,-1.1 -5.5,-1.5c1.6,1.2 4.7,3.6 6.3,4.8l-4.7,-3l1.7,2.5c-1.3,0.4 -2.6,0.8 -3.8,1.2l1,2.2l-2.6,-1.9c0.6,0.8 1.7,2.4 2.3,3.2l-2.6,-1.1l1.2,1.9l-2.2,-1.4l1.7,3l-3.3,-2.7l2.4,3.7l-3.9,-3.2l2.5,3.6l-2.8,-1.5l2.1,2.4l-4,-1.2l3.2,2.5l-3,-0.9l0.8,1.7l-2.6,-1c0.2,0.6 0.6,1.9 0.7,2.6l-2.7,-1.7c0.6,0.7 1.9,2.1 2.6,2.8c-1.2,-0.1 -3.6,-0.3 -4.9,-0.4c0.9,0.6 2.8,1.9 3.7,2.5l-3.2,-0.7c0.1,0.9 0.3,2.6 0.4,3.5c-0.5,-1.2 -1.6,-3.5 -2.1,-4.7l0,4.8c-0.7,-0.2 -2,-0.5 -2.7,-0.7c0.4,0.7 1.4,2 1.8,2.6l-2.5,-0.4l0.6,2.2c-0.6,-0.5 -1.8,-1.6 -2.4,-2.2l0.5,3.7l-2.2,-3.5c0.3,1 0.9,3 1.2,4l-4.5,-0.4c1.2,0.6 3.7,1.8 4.9,2.3l-2.9,-0.3l0.4,4.7c-1.1,-1.9 -3.3,-5.8 -4.4,-7.7l2.3,8c-0.8,-1.6 -2.3,-4.7 -3.1,-6.2c0,1.4 -0.1,4.3 -0.2,5.7l-1.5,-0.7l0.9,1.9l-1.7,-0.9l0.7,2.7c-0.7,-0.5 -2.1,-1.6 -2.8,-2.1c0.2,0.8 0.5,2.3 0.7,3l-1.7,-0.5c0.2,0.7 0.6,2 0.7,2.7c-1.4,-0.8 -4.3,-2.3 -5.7,-3.1l3.5,4.2c-0.8,-0.5 -2.5,-1.4 -3.3,-1.8c-0.1,2 -0.2,3.9 -0.3,5.9c-1.4,0.1 -2.8,0.2 -4.1,0.4c-0.4,1.3 -0.9,2.6 -1.3,3.9c-2.3,-0.6 -4.7,-1.5 -7,-2.2l4.2,3.6l-5.3,-0.4c1,1.1 2.9,3.4 3.8,4.5c-1.2,-0.9 -3.5,-2.7 -4.6,-3.6l3.3,4.6c-1.5,-1.3 -4.6,-4 -6.1,-5.3l3.7,4.6l-3.4,-1.4l2.8,2.3l-3,-0.9l0.9,1.8l-1.6,-0.8l0.3,4.3c-1.1,-1.7 -3.3,-5.1 -4.4,-6.8c0.8,2.3 2.3,6.8 3.1,9.1c-0.7,-1.7 -2.2,-5 -2.9,-6.7l-0.1,8l-1.3,-4.8l-3.7,-2.4c1.1,2 3.3,5.9 4.4,7.8c-1.3,-0.9 -3.9,-2.7 -5.2,-3.5l3.6,4.9c-1.5,-1.4 -4.7,-4.3 -6.2,-5.7l4.1,6.7l-4.7,-4.5l3.6,5.4c-1.4,-1.3 -4.3,-4 -5.8,-5.4l3.4,4.5c-0.8,-0.2 -2.3,-0.6 -3,-0.9c0,1.1 0,3.2 0,4.3l-1.9,-3.1l-2.9,-2.2c1,1.5 2.9,4.4 3.9,5.8c-0.8,-0.2 -2.3,-0.6 -3,-0.8l-0.5,4.6c-0.3,-1.8 -0.9,-5.4 -1.2,-7.2l-0.7,8.1l-1,-4.6l-3.6,-1.7l4.1,4.7l-2.3,-0.9l0.2,4.4l-1.6,-4.3l-3.5,-1.8l4.3,4.8l-2.3,-0.9l0,4.2c-1.1,-1.6 -3.4,-4.8 -4.6,-6.4c0.8,1.5 2.4,4.6 3.2,6.2c-1.5,-0.8 -4.6,-2.4 -6.1,-3.2l3.8,4.1l-2.4,-0.8l0.2,2.8c-1.1,-1.2 -3.4,-3.5 -4.5,-4.7c0.7,1.5 2.1,4.4 2.8,5.8c-1,-0.5 -3,-1.6 -4.1,-2.2l2.9,5.8c-1.3,-1.8 -3.9,-5.4 -5.2,-7.2l3.1,8.6c-1.4,-2.3 -4.1,-6.9 -5.4,-9.2l3.1,9.4c-1.3,-1.6 -4,-4.8 -5.4,-6.5l3.7,7.1l-3.8,-4.7c0.3,1.2 0.8,3.6 1,4.8l-2.8,-3.1l2.7,6.5c-1.4,-2.4 -4.3,-7.1 -5.8,-9.4l2.6,7.8c-0.8,-1 -2.3,-3.1 -3.1,-4.1l1.6,5.5l-3.9,-4.3l3.7,6.8c-1.5,-2.1 -4.6,-6.2 -6.1,-8.3l3.7,9.6c-1.4,-2.1 -4.3,-6.3 -5.8,-8.5l3.3,7.7l-3.6,-3.2l2.8,5.2c-1.4,-1.2 -4.1,-3.6 -5.5,-4.8l4.5,6c-1.7,-1.7 -5,-5.1 -6.7,-6.7l4.2,8.3c-1.4,-2.2 -4.3,-6.5 -5.7,-8.7l3.6,10.1c-1.3,-2.4 -3.8,-7.2 -5.1,-9.7l3,10.6c-1.2,-2.4 -3.6,-7.1 -4.8,-9.4l2.8,10.2c-1.3,-2.3 -4,-6.9 -5.3,-9.2l3.3,10c-1.3,-2.1 -4.1,-6.3 -5.4,-8.4l3.5,9.5c-1.3,-2.3 -4.1,-6.8 -5.4,-9l3.3,9.8c-1.4,-2.1 -4.1,-6.4 -5.5,-8.6l3.6,9.6c-1.4,-2.1 -4.2,-6.3 -5.5,-8.4l3.6,9.6c-1.3,-2.3 -4,-6.8 -5.4,-9l3.3,9.9c-1.3,-2.2 -3.9,-6.6 -5.2,-8.8l3.2,9.8c-1.4,-2.2 -4.1,-6.6 -5.4,-8.8l3.5,9.7c-1.4,-2.1 -4.2,-6.3 -5.6,-8.4l3.6,9.4c-1.4,-2.1 -4.3,-6.4 -5.7,-8.5l3.7,9.1c-1.6,-1.8 -4.7,-5.3 -6.3,-7l4.9,7.8c-1.8,-1.7 -5.5,-5.2 -7.3,-6.9l5.7,8.5c-2,-2 -6,-6.1 -7.9,-8.2l4.2,9.8c-1.5,-2.3 -4.6,-6.8 -6.1,-9.1l3.6,8.3c-1.5,-1.2 -4.5,-3.5 -6,-4.7l4.7,6.3c-1.8,-2.1 -5.5,-6.4 -7.4,-8.6l4,10.5c-1.3,-2.1 -4,-6.4 -5.3,-8.6l3.1,9.3c-1.3,-2 -3.9,-6 -5.2,-8l3.8,9.2c-1.8,-2 -5.5,-6 -7.3,-8l4,7.5c-1.7,-1.2 -5,-3.6 -6.7,-4.9l5.4,6.6c-1.8,-2 -5.4,-6.1 -7.2,-8.2l3.6,9.3c-0.8,-1.7 -2.5,-5.1 -3.4,-6.8l-0.2,10.2c-0.6,-3.3 -1.9,-9.8 -2.5,-13c-0.1,3.6 -0.4,10.8 -0.6,14.4c-0.5,-3.1 -1.5,-9.4 -2.1,-12.6l-3,5.7l4.3,2.5c-0.9,-0.1 -2.7,-0.3 -3.6,-0.4l-3.3,-6l3.2,10.7c-0.8,-2.2 -2.4,-6.5 -3.2,-8.7l-0.3,11.4c-0.6,-3.1 -1.8,-9.4 -2.5,-12.5c-0.2,3.4 -0.6,10.2 -0.8,13.6c-0.2,-3.1 -0.7,-9.4 -0.9,-12.6c-0.5,2.3 -1.5,6.9 -2,9.3c-1.1,-1.4 -3.2,-4.3 -4.3,-5.7l2.3,10.6c-0.9,-2.9 -2.7,-8.8 -3.6,-11.7l-0.1,5.8l0.9,3.1c-3.2,-1.4 -5.9,-3.5 -7.9,-6.4l4.7,10.3c-1.5,-1.9 -4.6,-5.7 -6.1,-7.6l2.6,8.2c-1.5,-2.6 -4.6,-7.7 -6.2,-10.2l3.5,12.3c-1.1,-2.8 -3.4,-8.4 -4.5,-11.2c0,2 0,5.8 0,7.8c-1.3,-0.1 -2.6,-0.1 -3.9,-0.2c-0.4,0.4 -1.1,1.3 -1.5,1.7c-1,0.1 -2,0.3 -3,0.5c-1.4,-0.9 -4.2,-2.7 -5.6,-3.6l5.3,7.3c-3.6,-2.6 -7.1,-5.2 -10.8,-7.7l6.9,8.8c-3.6,-2.7 -7.3,-5.4 -11,-8l7,8.9c-3.3,-2.1 -6.7,-4.2 -10.1,-6l5.3,7.2c-1.3,-0.9 -4,-2.6 -5.3,-3.5l-0.9,-6.2c-0.1,2.5 -0.3,7.6 -0.4,10.1c-2.1,-2.9 -5.7,-4.7 -8.6,-6.5l6.1,8.2c-3.6,-2.8 -7.3,-5.5 -11.1,-8.1l7,8.7c-3.8,-2.4 -7.9,-4 -12.1,-5.5l5.7,6.2c-3.8,-2 -7.2,-4.9 -10.5,-7.4l5.8,8.8c-3.7,-2.4 -7.7,-4.4 -11.6,-6.4l5.8,7.4c-4.2,-3.7 -10.5,-2.8 -14,-7.6l7.1,8.7c-3.7,-3.5 -9.3,-2.8 -12.9,-6.5l5.8,7.3c-3.9,-4.4 -11.1,-1.1 -13.8,-7.6l5.7,8.8c-3.9,-6 -12.8,0.5 -15.7,-7.8l5.8,8.9c-5.4,-7 -16.2,1.7 -20.8,-7.7l7,8.6c-1.9,-2.3 -4.3,-3.1 -7,-2.9c-13.3,0.1 -26.7,0.1 -40,0c-3.8,0.1 -8.1,-0.8 -10.9,2.8l6.8,-8.5c-4.8,9 -14.7,1.4 -20.9,7.2l6.3,-6.1c-4.6,5 -12.1,0 -16.3,5.5l5.6,-7.2c-3.4,4.8 -9.6,1.9 -13.3,5.8l5.6,-7.1c-3.9,2.9 -8.6,3.9 -12.9,6l6.2,-5.9c-4.2,2.6 -9.6,1.9 -13.3,5.4l6.3,-7.9c-4.1,2.3 -8.3,4.7 -12.3,7.1l6.9,-8.7c-4,2.5 -8,5.2 -11.9,7.8l6.8,-8.6c-4.2,2.4 -8.4,5 -12.6,7.4l6.1,-9.2c-3.4,2.8 -6.9,5.6 -10.3,8.5l5.8,-7.9c-3.7,2.1 -7.3,4.4 -10.9,6.8l7,-8.8c-3.5,2.4 -7,4.8 -10.5,7.2l5.6,-6.2c-3.7,1.5 -7.3,3.3 -10.7,5.3l5.2,-6.9c-5.9,0.7 -17.6,18 -3.8,-2.4c-3.3,2.6 -6.5,5.3 -9.6,8l5.9,-9.4c-1.5,1.4 -4.6,4.2 -6.1,5.7c-2.3,-1.1 -4.7,-1.8 -7.1,-2.2c-3.2,-0.8 -6.9,-4.3 -8.9,1.2l4.7,-9.1c-2.1,2 -6.4,6 -8.5,8l6.2,-9.6c-3.1,2.5 -6.3,5 -9.4,7.6l4.3,-5.4c-1.9,1.2 -5.8,3.7 -7.7,5l2,-4.3l0.2,-6.7c-1.2,3 -3.6,9 -4.8,12l3.7,-12.4c-1.7,2.5 -5.1,7.5 -6.7,10l1.8,-5.1l-0.3,-6.9c-0.6,3.2 -1.9,9.5 -2.6,12.7l-0.3,-11.5c-0.8,2.2 -2.5,6.6 -3.4,8.7l3,-10.8l-3.1,4.6c-0.3,1.3 -1,3.8 -1.4,5c-0.1,-2.4 -0.2,-7.3 -0.3,-9.7c-0.8,2.6 -2.4,7.7 -3.3,10.3l2.8,-11.8l-3.5,5.1c-0.9,0.8 -2.8,2.5 -3.7,3.4l4.9,-6c-1.4,0.8 -4.2,2.3 -5.5,3.1l2.3,-8c-1.6,2.3 -4.9,7 -6.5,9.3l4,-7.1c-1.4,1.4 -4.3,4.2 -5.7,5.6l4.1,-9c-2,2.2 -5.9,6.7 -7.9,8.9l4.6,-7.4c-1.4,1.3 -4.3,3.9 -5.7,5.3l4.4,-7.1c-1.7,1.7 -5,5 -6.7,6.7l4.4,-9c-2,2.1 -6.1,6.3 -8.2,8.3l5.6,-6.8c-1.5,1.3 -4.5,3.8 -6.1,5.1l3.3,-8.2c-1.4,2.1 -4.3,6.3 -5.7,8.4l3.9,-9.4c-2,2.1 -5.9,6.2 -7.9,8.2l5.6,-8.4c-1.8,1.7 -5.5,5.2 -7.3,6.9l4.9,-7.8c-1.6,1.8 -4.7,5.3 -6.3,7.1l3.9,-8.8c-1.6,1.9 -4.8,5.8 -6.3,7.7l4.6,-8c-1.5,1.8 -4.5,5.4 -6,7.2l3.6,-9.3c-1.4,2.2 -4.2,6.5 -5.6,8.7l3.3,-9.9c-1.3,2.3 -4,6.9 -5.4,9.2l2.9,-10.3c-1.2,2.3 -3.6,7 -4.8,9.4l2.7,-10.3c-1.2,2.3 -3.5,7 -4.7,9.3l2.8,-10.5c-1.2,2.4 -3.7,7.2 -4.9,9.7l2.9,-10.5c-1.2,2.3 -3.7,7 -4.9,9.3l3.3,-10.1c-1.3,2.2 -4,6.7 -5.4,8.9l3.8,-9.3c-1.6,1.9 -4.7,5.8 -6.2,7.7l4.5,-7.9c-1.4,1.7 -4.3,5.2 -5.7,6.9l3.1,-9.3c-1.4,2.3 -4.1,6.8 -5.4,9.1l3.6,-9.9c-1.4,2.1 -4.3,6.4 -5.8,8.6l4,-8c-1.6,1.6 -4.8,4.7 -6.4,6.2l3.8,-5l-4.5,2.3l4.5,-5.2l-3.4,2l-2.3,4.2l1.8,-8.6c-1,2.1 -3.1,6.2 -4.1,8.2l3.4,-10.2c-1.5,2.4 -4.4,7.3 -5.8,9.7l3.1,-6.4l-4.1,3.6l4.4,-5.4c-1.3,0.7 -3.9,2.2 -5.2,2.9l2.4,-7c-1.3,2.3 -4,6.9 -5.4,9.2l3,-9c-1.2,1.9 -3.6,5.6 -4.8,7.5l2.7,-6.6l-3.5,4.5l2.9,-8.3c-1.3,2.2 -4,6.6 -5.3,8.8l3.6,-9.9c-1.6,2.2 -4.8,6.5 -6.4,8.6l3.4,-5.6l-3.5,2l3.8,-5.2l-3.1,2.8l-2.1,3.6l0.6,-4.4l-2.5,1.2l3.8,-4.8c-1.5,1.4 -4.6,4 -6.2,5.4l4,-5.3l-4.1,3.3l1.1,-2.6c-1.1,0.1 -3.3,0.4 -4.5,0.5c1,-1.5 2.9,-4.4 3.8,-5.8c-1.6,1.5 -4.9,4.5 -6.5,6l4,-5.3l-3.5,2.8c0.1,-1 0.3,-2.9 0.4,-3.9l-2.4,3.5l0.4,-3l-2.5,1.1l3.7,-4.6c-1.5,1.3 -4.6,3.9 -6.1,5.2l3.4,-4.4l-3.7,1.7l1.4,-2.1c-0.7,0.3 -2.2,0.9 -3,1.2l1.8,-1.9l-3.7,0.5l4.2,-3.3c-1.6,0.6 -4.8,1.8 -6.4,2.4c0.5,-1.3 1.6,-3.9 2.2,-5.2l-3.7,4.3l1.3,-3c-0.6,0.2 -1.9,0.7 -2.5,0.9l0.4,-1.6l-2.2,0.2l3.7,-4l-3.5,1.4l-0.7,4.4c-0.4,-1.1 -1.2,-3.3 -1.6,-4.4l0.2,-0.9l-2.4,1l3.8,-4.8c-1.5,1.3 -4.6,4 -6.1,5.3l3.3,-4.6l-3.3,2.7l0.9,-2.6l-2.6,0.9l4,-4.9c-1.6,1.4 -4.8,4.2 -6.3,5.6l3.5,-4.9l-3.5,2.9l0.9,-2.7l-2.4,0.8l1.6,-1.9l-2.9,1.2l3.8,-4.7c-1.5,1.3 -4.6,4 -6.1,5.3l2.8,-4.1c-1.2,0.7 -3.5,2.1 -4.7,2.8c1.2,-1.6 3.5,-4.8 4.7,-6.4c-1.4,0.8 -4.2,2.3 -5.6,3.1l0.7,-3c-0.9,0.5 -2.8,1.6 -3.8,2.1c0.7,-0.8 2.1,-2.5 2.8,-3.3l-3.4,1.8l3.2,-3.5l-4.6,2l3.8,-4.2c-1.5,0.8 -4.5,2.3 -6,3c0.5,-1 1.5,-3.1 2,-4.1l-2.7,1.1l0.8,-2.6l-1.9,1.6l1.1,-2.7c-0.9,0.4 -2.6,1.1 -3.5,1.5l3.1,-4c-1.3,0.8 -4,2.5 -5.4,3.4c0.1,-1.2 0.3,-3.7 0.3,-4.9c-0.6,0.5 -1.8,1.6 -2.4,2.1l0.7,-1.8l-1.6,0l0.1,-1.8l-2,1.2c0.4,-0.7 1.3,-2.1 1.7,-2.8l-1.8,0.9c0,-1.4 0.1,-4.3 0.1,-5.7l-1.8,3.7l-2.8,3l2.8,-4.3l-3.5,1.3c0.5,-0.8 1.6,-2.3 2.2,-3.1c-0.9,0.5 -2.7,1.4 -3.6,1.8l1.8,-3l-2.4,1.8l1.2,-2.8l-2.5,2l1,-2.6l-2.7,0.7c0.6,-0.7 1.7,-2 2.2,-2.6l-3.2,0.6l1.8,-1.7c-0.5,0.1 -1.3,0.3 -1.8,0.4c-1,-0.3 -2.9,-0.8 -3.8,-1.1c0.6,-0.5 1.8,-1.6 2.5,-2.2l-3.4,1.6l3.5,-4l-4,2.6l1.4,-2.3l-2.5,0.9c0.5,-0.8 1.5,-2.3 2,-3l-3.1,1l1.4,-1.8c-0.7,0.2 -2.2,0.5 -2.9,0.7c0.2,-0.7 0.5,-2 0.7,-2.7l-1.8,0.9l0.9,-1.9l-1.9,0.8l0.8,-1.9l-1.8,0.8l0.7,-2.6c-0.7,0.7 -2.1,2 -2.9,2.6l1,-2.8l-1.9,0.8l0.9,-1.8l-2.7,0.7c0.7,-0.7 2.1,-2 2.8,-2.7l-3.7,0.8l3.5,-4.2c-1.2,1.3 -3.6,3.8 -4.8,5.1l0.9,-3.4c-1.3,0.1 -3.9,0.2 -5.2,0.3c1.7,-0.9 5,-2.7 6.6,-3.6l-7.4,2.7c1.5,-1.5 4.6,-4.6 6.1,-6.1l-5,4.2l1.2,-2.9l-2,1.9l0.7,-2.7l-2.6,1.1c0.6,-0.8 1.8,-2.4 2.4,-3.2l-2.5,1.7l0.8,-3.6c-0.7,0.7 -2.1,2.1 -2.8,2.9l0.8,-2.8l-1.8,0.8l0.7,-1.8l-3,1.2c1,-1.5 3.1,-4.6 4.1,-6.2l-3.8,4.6l0.7,-3.9c-0.6,0.7 -1.9,2.1 -2.6,2.8l0.6,-2.4l-5.1,1.5c2.3,-1.2 6.8,-3.5 9.1,-4.6l-7.7,1.9c0.8,-1.5 2.4,-4.5 3.1,-6c-1.1,1 -3.2,3 -4.2,4l0.7,-2.9l-2.3,1l1.5,-2.7c-0.7,0.6 -2.2,1.8 -2.9,2.4c0.2,-0.9 0.6,-2.6 0.8,-3.5l-2.1,0.6c0.9,-1.4 2.5,-4.1 3.4,-5.5c-1.6,1.1 -4.7,3.3 -6.2,4.3c0.7,-1.2 2.1,-3.6 2.8,-4.9l-4.6,3.5l2.8,-3.3c-1.3,-0.3 -2.5,-0.8 -3.8,-1.2c0,-2.5 0.1,-5.3 2.3,-7c-1.3,0.9 -4,2.6 -5.3,3.4c0.4,-1.1 1.3,-3.3 1.7,-4.4l-4.5,3.4c1.4,-1.6 4.1,-4.9 5.5,-6.5l-4.7,4l0.8,-3.8c-0.7,0.8 -2,2.3 -2.7,3.1c0.2,-0.9 0.5,-2.8 0.7,-3.7l-4.3,0.5c1.7,-1.2 5,-3.5 6.7,-4.6c-1.8,0.7 -5.3,2.2 -7,2.9c1.1,-1.5 3.4,-4.5 4.6,-6.1c-1.5,0.8 -4.5,2.3 -5.9,3c0.9,-1.5 2.7,-4.5 3.6,-6l-4.5,3.7l1.6,-3.9l-4.3,3.4c1.3,-1.6 4,-4.8 5.4,-6.3l-4.8,3.9l1.2,-2.3l-4,0.1c1.7,-1.3 5,-4 6.6,-5.3c-2.2,1.3 -6.7,3.8 -8.9,5.1c1.7,-1.7 5,-5.2 6.7,-6.9l-7.9,4.1c1,-0.9 2.9,-2.7 3.9,-3.5c-0.9,0 -2.8,0.1 -3.8,0.1c0.5,-2.5 1,-5 1.6,-7.3l-4.1,3.9l3.1,-4.4l-5.2,4c1.5,-1.6 4.6,-4.9 6.1,-6.5c-1.6,1 -4.9,2.9 -6.6,3.9c0.9,-0.8 2.8,-2.4 3.7,-3.2l-6.9,-0.2c1.8,-0.4 5.3,-1.1 7.1,-1.5l-8.3,-0.5l4.2,-1.2l4.4,-2.3l-10.2,3c2.5,-1.3 7.5,-3.8 10,-5.1l-8.2,2.3c1.1,-1.3 3.2,-3.8 4.3,-5.1l-4.9,3.9l2.1,-4.1l-5.2,3.7c1.9,-1.6 5.6,-4.6 7.5,-6.2l-8.3,3c1.6,-1.3 4.6,-3.9 6.2,-5.2l-6.3,3.5l3.8,-4.3l-6.2,4.4c2,-1.7 6,-5.1 8,-6.8l-9.6,4.1c2.3,-1.4 6.7,-4.1 9,-5.5l-8,3c1.3,-1.4 3.8,-4.1 5,-5.5l-5.1,3.9l2.7,-4.7l-5.5,4.3c1.4,-1.5 4.3,-4.6 5.8,-6.2l-7.4,3.6c2.1,-1.4 6.3,-4.2 8.4,-5.6l-9.8,3.5c2.2,-1.3 6.6,-3.9 8.9,-5.3l-10.2,3.3c2.4,-1.3 7.3,-3.8 9.7,-5l-10.5,3c2.3,-1.3 6.9,-4 9.2,-5.3l-9.5,3.1c1.8,-1.4 5.4,-4.2 7.2,-5.6l-8.6,4c2.2,-1.5 6.5,-4.6 8.6,-6.1l-7.8,3.7l4.1,-4.9l-6.7,5.3c2.1,-2.1 6.1,-6.4 8.2,-8.6l-9.2,4.5c1.9,-1.6 5.6,-4.7 7.4,-6.3l-8,4.5c1.8,-1.4 5.3,-4.3 7,-5.8l-8.7,4c2.2,-1.4 6.7,-4.2 8.9,-5.6l-10.1,3.1c2.2,-1.4 6.6,-4.2 8.8,-5.6l-9.5,3.6c2.1,-1.4 6.3,-4.3 8.4,-5.8l-8.9,3.7c1.7,-1.6 5.1,-4.8 6.9,-6.3l-7.1,4.5c1.2,-1.6 3.5,-4.9 4.7,-6.6l-6.6,5.3c2.1,-1.9 6.5,-5.9 8.6,-7.8l-10.1,3.9c2.2,-1.5 6.5,-4.4 8.6,-5.9l-8.8,3.9c1.6,-1.5 4.8,-4.6 6.4,-6.2l-8.1,4.9c2.4,-1.8 7,-5.4 9.4,-7.1l-10.1,3.3c2,-1.4 5.9,-4.2 7.9,-5.6l-9.4,3.6c2.2,-1.5 6.6,-4.5 8.8,-6l-10.4,4c2.2,-1.6 6.6,-4.8 8.8,-6.4l-9.2,3.8c2.2,-1.3 6.7,-4 8.9,-5.4l-11.3,3.2c3,-1.1 8.9,-3.4 11.9,-4.5l-6.1,0.2l-5.6,1.5c2.4,-1.7 7.1,-5.1 9.5,-6.8l-10.2,3.6c2.2,-1.5 6.4,-4.6 8.6,-6.2l-10,4.3c2.3,-1.9 6.8,-5.7 9.1,-7.6l-10.6,4.3c2.4,-1.6 7.2,-4.9 9.6,-6.5l-9.4,3.6c2,-1.1 5.9,-3.3 7.9,-4.5l-10.3,2.2c1.9,-0.6 5.6,-1.7 7.5,-2.3l-0.1,-4.7l-7.2,5.5c2.1,-2.2 6.3,-6.5 8.4,-8.7l-10.2,4.3c2.5,-1.5 7.4,-4.5 9.9,-6l-12.1,2.5l5.8,-2.1l6.7,-1.2c-7,3.9 -8,-1.2 -10,-4.9c2.1,-0.5 6.3,-1.6 8.4,-2.1l-13,-0.6l4.3,-0.7c-0.2,-0.5 -0.5,-1.6 -0.7,-2.2c-0.2,-0.5 -0.7,-1.5 -0.9,-2l-0.4,0.6c0,-1 0.1,-3.1 0.1,-4.1l8.3,-0.9l-13.6,-0.8l4.2,-0.8c0.5,-1.1 1.5,-3.3 2,-4.5l-4.4,3.4c2,-2.7 4.2,-5.4 6.3,-8l-9,5.8c0.9,-1.3 2.7,-4 3.6,-5.3l5.9,-0.9l-5,-0.5l-5,1.8c2.5,-2.5 4.2,-5.5 5.1,-8.9l-5.8,5c2.4,-3.2 4.9,-6.4 7.5,-9.5l-9.1,6c2.4,-3.5 4.7,-7.3 6.9,-10.9l-8.1,6.1c2.6,-3.7 5.3,-7.3 8,-10.9l-9.4,6.1c2.9,-3.4 5.8,-6.8 8.5,-10.2l-8.9,5.8c2.6,-3.5 3.9,-7.8 5.3,-11.8l-5.1,4.8c1.6,-3.3 3.4,-6.6 5.3,-9.7l-7.5,5.9c2.5,-3.7 4.1,-8 5.4,-12.2l-5.2,5.5c1.4,-4.2 2.6,-8.4 4.1,-12.5l-4.9,5.2c1.2,-4.6 3.1,-9.1 6.1,-12.8l-8.6,7.1c4.6,-3.8 1.5,-11.1 7.8,-14l-8.8,5.7c5.3,-4.1 1.9,-11 3.3,-16.5l-1.5,4.4c0.9,-6.5 -2.4,-14.6 5,-18.6l-8.7,5.5c2.9,-1.4 2.9,-4.2 2.9,-6.7c-0.1,-14 -0.1,-28 0,-42c0.3,-2.6 -1.4,-5 -2.6,-7.1l6.1,6.4c-5.6,-5.9 0.8,-14.9 -5.4,-20.3l7.2,5.6c-5.9,-4.3 -1.1,-11.6 -5.5,-16.4l5.8,6.1c-4,-4.1 -0.8,-10.6 -5.4,-14.3l8.6,7c-3.5,-3.8 -4.9,-8.6 -6.5,-13.3l5.1,5.4c-2.3,-4.2 -1.8,-9.3 -5,-13l7.1,5.7c-1.9,-3.3 -3.6,-6.6 -4.7,-10.3l4.5,4.3c-1.1,-3.1 -2.2,-6.1 -3.3,-9.2l4.2,4c-1.3,-4 -2.4,-8.2 -5,-11.7l8.6,6.9c-2.5,-3.7 -5.1,-7.3 -7.8,-10.9l7.3,5.6c-1.7,-3.1 -3.4,-6.1 -4.9,-9.3l5.3,4.6c-1.5,-3.8 -3.3,-7.6 -5.7,-10.9l9.1,6c-2.1,-3.5 -18.4,-19.5 0.8,-4.3c-2.5,-3.2 -5.1,-6.3 -7.8,-9.3l5.3,2.1l5.3,-0.6l-6.2,-0.8l-1.1,-2l-2.9,-2.6l5.8,2.1l5.6,-0.5l-6.3,-0.9c-1.1,-1.2 -3.2,-3.7 -4.2,-4.9l9.4,5.1c-2,-2.1 -6,-6.3 -8,-8.3l8.1,5.8c-1.1,-1.5 -3.2,-4.5 -4.3,-6.1c0.9,-2 1.6,-4 2.7,-5.9l-4.4,-2.1l11.7,3c-1.8,-1.2 -5.4,-3.6 -7.2,-4.8c1,-2 1.6,-4.1 3.3,-5.7c-0.7,-0.9 -2.2,-2.7 -2.9,-3.6l4.5,3.9l5.2,-2.4c-2.8,-1.1 -8.4,-3.2 -11.2,-4.2l12.2,3.6c-2.5,-1.7 -7.4,-5.1 -9.9,-6.8l5,1.8l6.8,0.1c-3.1,-1.1 -9.3,-3.4 -12.4,-4.5l11.6,3.1c-2.4,-1.2 -7.1,-3.7 -9.5,-4.9l10.4,3.5c-2.3,-1.9 -6.8,-5.8 -9.1,-7.7l8.2,4.6l-1.6,-2.2c-1.5,-1.2 -4.6,-3.6 -6.1,-4.8l8.5,4.3c-1.5,-1.5 -4.5,-4.6 -6,-6.2l7.4,4.6c-1.9,-1.9 -5.6,-5.7 -7.5,-7.6l10.1,5c-2.3,-2 -6.8,-5.9 -9.1,-7.9l9.8,3.6c-2,-1.4 -6.1,-4.2 -8.2,-5.6l10,4.2c-2.3,-1.9 -6.8,-5.8 -9,-7.7l7.5,4.7c-1.4,-1.6 -4.3,-4.7 -5.7,-6.2l7.4,4.6c-1.6,-1.6 -4.8,-4.8 -6.4,-6.4l9.1,4.2c-2.1,-2 -6.4,-6 -8.6,-8.1l6.7,5.5c-1.2,-1.7 -3.6,-5 -4.7,-6.7l7.2,4.6c-1.7,-1.7 -5.1,-5 -6.8,-6.7l9.3,4.3c-2.2,-2 -6.7,-6 -9,-8l8.2,5.2c-1.6,-1.6 -5,-4.7 -6.6,-6.2l8.9,3.7c-2.1,-1.4 -6.4,-4.2 -8.6,-5.6l9.9,3.3c-2.3,-1.3 -6.9,-4 -9.2,-5.4l10,3.2c-2.2,-1.3 -6.7,-3.9 -8.9,-5.2l10,2.7c-2.3,-1.2 -6.9,-3.5 -9.2,-4.7l10.4,2.9c-2.4,-1.3 -7.3,-3.8 -9.7,-5.1l10.1,3.6c-2.1,-1.4 -6.2,-4.3 -8.3,-5.7l7.7,3.9c-1.6,-1.9 -4.7,-5.8 -6.3,-7.7l5.9,4.8l-3.9,-4.7l7.8,3.7c-2.1,-1.5 -6.4,-4.4 -8.5,-5.9l10.3,3c-2.5,-1.3 -7.4,-3.8 -9.8,-5.1l10.4,3.4c-2.2,-1.3 -6.7,-3.9 -8.9,-5.2l9.8,3.2c-2.2,-1.3 -6.6,-3.9 -8.7,-5.2l9.9,3.3c-2.3,-1.3 -6.8,-4 -9.1,-5.4l9.8,3.6c-2.2,-1.5 -6.6,-4.4 -8.8,-5.9l7.9,4.1c-2.3,-1.8 -2.7,-4.4 -3.3,-6.9c0.9,-0.1 2.8,-0.3 3.7,-0.4c-1,-0.9 -3,-2.7 -4.1,-3.6l8.3,4c-1.7,-1.2 -5.2,-3.7 -7,-5l4.3,0.3l-1.1,-2.5l4.9,4.1l-2.5,-3.1l-3.5,-2.6l8.9,2.5c-2.2,-1.2 -6.6,-3.6 -8.7,-4.8l8.6,3.3c-1.8,-1.4 -5.3,-4.3 -7,-5.7l6.1,3.8l-4.1,-4.1l7.7,2.9c-2,-1.3 -6,-3.8 -8,-5l9.6,3c-2.2,-1 -6.7,-3.1 -9,-4.2l7.8,0.4c-1.5,-0.9 -4.4,-2.6 -5.9,-3.5l5.5,2.8l-4.1,-3.9l3.8,2.5l-1.4,-3.6l3.2,4.2c-0.5,-1.6 -1.4,-4.8 -1.9,-6.4c1.5,0.8 4.5,2.5 6,3.3l-3,-2.8l-3.5,-1.9l4.2,0l-1.1,-2.3l4.9,4.1c-1.3,-1.4 -3.9,-4.3 -5.2,-5.8l8.4,3.2c-2.1,-1.4 -6.2,-4.2 -8.3,-5.6l4.7,2l-2.2,-2.2l2.8,0.9l-0.9,-2.6l4.5,3.7c-1.3,-1.6 -3.9,-4.7 -5.2,-6.2l5,4l-3.3,-4.5l4.8,4c-1.1,-1.6 -3.2,-4.9 -4.3,-6.5l3.6,3.2l-1,-3.7l4,3.4c-1.2,-1.5 -3.5,-4.4 -4.7,-5.9l3.5,3.1l-1,-3.8l1.9,4.1c0,-2.1 -0.1,-6.4 -0.1,-8.5c0.5,1.5 1.4,4.4 1.9,5.9l0.1,-5.3l3.9,4.2l-1.5,-2.9l-2.4,-2.5c1.2,0.5 3.7,1.4 4.9,1.9c-0.6,-1.1 -1.9,-3.4 -2.6,-4.5l4.8,3.7c-1.1,-1.2 -3.4,-3.6 -4.5,-4.8l2.9,0.6l-0.7,-2.3l4.6,3.9l-1.7,-3.4l-4.6,-1.3l7.7,-0.3c-1.2,-0.5 -3.5,-1.5 -4.6,-2c0.8,0.1 2.5,0.3 3.4,0.5l-0.7,-1.3c1.7,0 5.1,0 6.8,0c-1.8,-0.9 -5.3,-2.6 -7.1,-3.5l7.5,1.7c-1.7,-0.9 -5.2,-2.6 -7,-3.5c2.2,0.4 6.7,1.1 9,1.5c-0.7,-1 -2.1,-3 -2.8,-4l0.4,-0.7c-0.2,-0.5 -0.7,-1.4 -1,-1.9l2.6,0.7l-0.2,-2.6c0.4,0.3 1.2,0.8 1.6,1.1l1.5,0.3l2.4,0.7c-1.2,-1.4 -3.6,-4.1 -4.8,-5.5l4.9,3.5c-1,-1.2 -2.9,-3.5 -3.8,-4.7c1.2,1 3.5,3 4.7,4l-0.5,-4.4l1.6,0.8l-0.9,-2.6l4.9,3.9c-1.5,-1.4 -4.5,-4.3 -5.9,-5.7l7.2,2.6c-1.7,-1 -5.2,-3.1 -6.9,-4.1l3.3,0.9l2.7,1.9l-1.2,-3.6c0.7,0.1 2.2,0.3 2.9,0.4c-0.3,-0.6 -0.9,-1.9 -1.3,-2.5l2.2,0.6l-1.1,-2.6l4.2,3.3l-3.4,-4.3l5,2.7c-1,-1.2 -2.9,-3.5 -3.9,-4.6c0.7,0.1 2.2,0.4 3,0.6l-0.5,-1.7c0.6,0.2 1.9,0.6 2.5,0.8l-0.8,-2.6l2.6,1.7c-0.6,-0.8 -1.8,-2.4 -2.4,-3.2l2.6,1.1l-1,-2.3l2,1.9l-1.6,-3.2l3.4,3.1l-1.8,-3.3l2.5,0.9l-2.5,-2.2l2.9,0.9l-0.8,-2.5l2.2,2.4l-1.2,-3.4c0.8,0.6 2.4,1.7 3.2,2.2l-1.9,-2.5l3.6,0.9c-0.5,-0.7 -1.6,-2 -2.2,-2.7l2.3,0.6l-1.2,-2.3l2.4,1.9l-1.6,-2.6l2.3,1.3l-0.8,-2.2l1.8,1.3l-0.7,-3.3c0.7,0.8 2,2.4 2.6,3.3c-0.1,-1.2 -0.4,-3.6 -0.5,-4.8c0.7,0.5 2.1,1.5 2.8,2l-1.6,-2.4l3,0.8c-0.5,-0.7 -1.6,-2 -2.1,-2.6l2.6,0.4l-0.8,-2.4c0.7,0.6 2.1,1.6 2.8,2.2l-0.8,-3.3l1.8,2c-0.2,-1 -0.5,-2.9 -0.7,-3.9l3.8,3.8c-0.8,-1.9 -2.4,-5.6 -3.2,-7.4c1.2,1.6 3.4,4.9 4.6,6.5l-2.6,-7.1c1.1,1.4 3.4,4.2 4.6,5.6l-1.2,-3.1l2.3,0.1l-3.4,-2.1l3,0.1l-1,-2.4l2.7,2.2l-1.7,-3.3c0.8,0.7 2.2,2.1 3,2.9l-0.7,-2.9l2.3,1.2c-0.4,-1.2 -1.2,-3.5 -1.6,-4.6c0.7,1 2,3 2.7,4.1l-0.2,-4.9c0.9,1.1 2.6,3.3 3.5,4.4l-2.5,-5.4l2.5,2.3l-0.8,-3.6l4.4,4.1c-1.2,-1.9 -3.6,-5.6 -4.8,-7.5c1.5,1.4 4.4,4.3 5.8,5.8l-2.3,-6.7c0.7,1.2 2,3.5 2.7,4.7l3.1,0l-1.9,-2.4c-0.3,-1.2 -0.8,-3.7 -1.1,-4.9c1,0.9 3,2.7 4,3.6l-2.9,-4.9c1.2,1.7 3.6,5.1 4.9,6.8c-0.3,-1.5 -1,-4.4 -1.3,-5.9l2.1,1.2c-0.1,-0.9 -0.3,-2.7 -0.4,-3.6c1,0.1 2.9,0.3 3.8,0.4l-1.8,-3l4.5,3.9l-2.8,-4.2c0.6,0.5 1.8,1.5 2.4,2c0,-1.2 0,-3.5 -0.1,-4.7l1.9,0.7l3.2,1.1l-4.2,-4.1c1.3,0.3 3.9,0.9 5.2,1.2c-0.6,-0.7 -1.9,-2.1 -2.6,-2.7l2.8,-0.2l0.2,4.3l2.5,-3.8l-2.1,-0.7l0.9,-1.4l-3.5,-1.4l3.3,0.3c1.3,0.5 3.9,1.6 5.2,2.1l-3.9,-3.8l2.7,0.8l-0.8,-4.1l2.1,3.3l2.9,2.4l-3.7,-4.5l3.6,0.9c-0.5,-0.6 -1.6,-1.9 -2.1,-2.5c1,0.1 3.1,0.2 4.2,0.3l-0.9,-2.1l3.7,2.6l-4,-5.1c1.6,1.4 4.7,4.1 6.2,5.4l-3.8,-4.9l4.6,2.5l-4.1,-5.3c1.7,1.5 5,4.5 6.6,6c-0.9,-1.7 -2.8,-5.2 -3.7,-6.9c1.6,1.1 4.8,3.2 6.5,4.3l-3.9,-4.4l2.2,0.9l0.3,-3.9l1.3,3.9l2.9,2.1c-0.7,-1.5 -2.2,-4.4 -2.9,-5.9c1.5,0.5 4.4,1.5 5.9,2.1l-3.7,-4l4.4,3l-4,-5.1c1.7,1.5 5,4.6 6.6,6.1c-0.8,-1.6 -2.5,-4.8 -3.4,-6.4c1.5,1 4.5,2.9 6,3.8l-3.2,-5.4l4,3.4l-4,-5.9c1.5,1.8 4.4,5.3 5.8,7l-3.5,-9.2c1.4,2.6 4.1,7.7 5.4,10.3l-2.6,-8.6c1.3,1.1 4,3.4 5.3,4.6l-3.9,-4.8l2.8,1l-2.4,-4.8c1.5,2.2 4.6,6.5 6.2,8.7l-3,-7.7c1.4,1.1 4.1,3.4 5.4,4.5l-4,-4.8l2.6,1l-0.7,-4.8c1.1,2.4 3.2,7.1 4.3,9.4l-2.7,-10c0.8,1.8 2.3,5.3 3.1,7.1l-0.5,-6.7l2.9,3.5l-2.5,-5.5c1.4,1.2 4.1,3.6 5.4,4.8l-4.4,-5.9c1.6,1.5 4.9,4.6 6.5,6.1l-3.9,-7.2c1.5,1.6 4.4,4.9 5.8,6.5l-3.9,-7.7c1.5,2 4.5,5.9 6,7.9l-3.8,-9.1c1.5,1.8 4.4,5.4 5.8,7.2l-4.3,-8.2c1.5,2.1 4.5,6.2 6.1,8.3l-3.7,-9.9c1.4,2.3 4,6.8 5.4,9.1l-3.4,-10.4c1.3,2.4 3.7,7.2 5,9.6l-2.8,-10.5c1.2,2.4 3.6,7.1 4.8,9.4l-2.7,-10.3c1.2,2.3 3.6,6.9 4.8,9.2l-2.8,-10.1c1.3,2.3 3.9,6.8 5.3,9l-3.3,-9.3c1.3,2.2 3.9,6.6 5.2,8.8l-3.3,-10c1.3,2.2 3.9,6.7 5.3,9l-3.3,-10.1c1.3,2.3 4,7 5.4,9.3l-3.5,-10.6c1.4,2.5 4.3,7.4 5.7,9.9l-3.3,-9.5c1.5,1.7 4.5,5.1 6,6.8l-4.8,-7.6c1.7,1.6 5.2,4.9 6.9,6.5l-5.5,-8.3c1.9,2 5.8,5.9 7.8,7.9l-3.8,-9.1c1.4,2.2 4.1,6.6 5.5,8.8l-3.5,-9.9c1.5,2.2 4.4,6.7 5.9,9l-4.1,-10.4c1.6,2.4 4.9,7.3 6.6,9.7l-3.5,-10.8c1.3,2.5 3.9,7.4 5.2,9.9l-3.1,-10.6c1.5,2.3 4.4,6.9 5.9,9.2l-3.8,-10.5c1.9,2.1 5.7,6.2 7.6,8.2l-4.7,-7.1c1.7,1.2 5.2,3.7 6.9,4.9l-5.9,-6.8c2.1,1.9 6.2,5.7 8.3,7.6l-4.4,-8.5c1.6,1.7 4.9,5.1 6.5,6.8l-5.2,-8.3c2.1,2.3 6.2,6.9 8.2,9.2l-4.8,-10.6c1.9,2.4 5.7,7.1 7.6,9.5l-4.5,-11.1c1.5,2.1 4.6,6.2 6.1,8.3l-2.9,-7.9c0.7,0.7 2.1,2 2.8,2.7l0.8,-0.5c0.4,-0.2 1.1,-0.6 1.5,-0.7l0.8,-0.2l0.7,-0.3c0.3,-0.2 0.9,-0.7 1.2,-0.9l3.5,7.2l-2.6,-12.3c0.9,3 2.7,9.1 3.6,12.1c0.1,-3.3 0.3,-10 0.3,-13.3c0.6,3.1 1.9,9.4 2.6,12.5c0.1,-2.7 0.2,-8.2 0.2,-11c1.8,2.6 4.1,4.7 6.8,6.3l-5.1,-8c1.8,2.4 5.4,7.2 7.2,9.5l-3.7,-12.1c1.1,3 3.4,9.1 4.6,12.1c0.1,-3.2 0.2,-9.6 0.3,-12.8c0.6,2.9 1.9,8.6 2.6,11.4l0.3,-5.9l-1.8,-5.1c1.1,2.3 2.8,3.4 5.3,3.1c1.4,-1.2 3.2,-1.6 4.8,-2.4c1.5,1.4 4.5,4.1 6,5.5l-5.6,-8.9c3.4,2.6 6.9,5.1 10.4,7.6l-6.6,-8.8c3.2,3 6.4,6 9.5,9.1l-5.2,-9.9c3.1,2.7 6.8,4.4 10.6,5.8l-5.9,-6.6c3.6,2.3 6.7,5.3 9.1,8.9l-4,-10.3c2.9,3 6,5.6 9.4,8l-5.4,-8.8c3.4,2.7 7,5.3 10.6,7.8l-6.7,-8.5c3.7,2.5 7.9,4 12.1,5.4l-5.8,-6c3.6,1.9 7,4 10.6,6l-5.9,-7.5c3.7,2.6 8,4.1 12.3,5.4l-5.6,-5.4c4.3,1.6 8.9,2.7 12.6,5.7l-6.2,-7.7c4,3.7 10.4,2.4 13.1,8.1l-5.4,-8.6c3.7,4 9.8,1 13.7,4.9l-6.2,-6c5.1,4.6 13,-0.2 16.9,7.2l-7.1,-8.7c5.7,6.8 16.1,-1.5 20.9,7.6l-7.1,-8.9m16.5,79c-58.9,1.8 -117.3,17.6 -169,45.8c-58.3,31.6 -108,78.8 -142.8,135.3c-32.7,53 -52,114.2 -55.6,176.3c-4.5,73.1 12.5,147.5 48.9,211.1c33.3,58.7 82.6,108.3 141.1,142c58,33.5 124.9,51.2 191.9,50.7c62,-0.2 123.9,-15.8 178.4,-45.3c61.9,-33.2 114.2,-84 149.3,-144.8c32.3,-55.5 50,-119.4 51,-183.6c1.3,-65.2 -14.5,-130.7 -45.7,-188c-31.9,-59 -79.7,-109.3 -136.9,-144.2c-62.7,-38.5 -137,-57.9 -210.6,-55.3z" class="st0"/>
   <circle id="svg_2" stroke-miterlimit="10" fill="url(#SVGID_1_)" r="540" cy="540.00001" cx="540" class="st1"/>
   <g id="_x23_2eaa01e0">
    <path id="svg_3" enable-background="new" fill="#2EAA01" d="m539.9,209.30001c76.8,-0.4 153.2,27.5 212.2,76.6c25.3,21.2 47.6,45.9 65.6,73.6c37.2,57 56.7,125.6 53.8,193.7c-2.2,64.8 -24.1,128.7 -62,181.3c-29.2,40.7 -67.6,74.8 -111.8,98.4c-42.4,22.8 -89.7,36.6 -137.8,39.4c-22,1.2 -44.2,0.6 -65.9,-3.8c-65.4,-11.5 -126.8,-43.8 -173.5,-90.9c-49.1,-49 -81.2,-114.6 -90.1,-183.4c-5.7,-44.5 -1.8,-90.2 11.7,-132.9c16,-50.6 45,-97.1 84.2,-132.9c56.6,-52.5 134.6,-81.9 211.8,-78.3c-40.1,2.2 -79.7,12.6 -115.5,30.9c-43.7,22 -81.5,55.7 -108.2,96.7c-20.6,31.5 -34.7,67.2 -41.1,104.3c-7.1,41.3 -4.6,84.2 7.7,124.3c10.5,34.3 27.9,66.4 51.1,93.8c20.8,24.5 46.2,45.1 74.5,60.4c33.2,18 70.5,28.5 108.3,30.1c12,0.3 24,1.2 36,0.6c62.1,-2.5 122.8,-29.3 166.4,-73.6c22.4,-22.4 40.3,-49.2 52.8,-78.3c13.5,-31.5 20.3,-65.8 20,-100.1c-0.2,-43.2 -12.1,-86.1 -33.7,-123.5c-15.3,-26.6 -35.7,-50.2 -59.6,-69.5c-44,-35.5 -100.4,-55.5 -157,-55.3c0.1,-27.2 0.1,-54.4 0.1,-81.6z" class="st2"/>
    <path id="svg_4" enable-background="new" fill="#2EAA01" d="m522.9,371.90001c10,-1.1 20.1,-0.8 30.1,-0.5c36.8,-0.4 73.4,11.8 103.1,33.5c25.5,18.4 45.8,43.7 58.7,72.3c15.6,34.1 20.4,73 14,109.9c-6.1,35.2 -21.8,68.7 -45.1,95.6c-32.8,38.5 -80.5,63.7 -130.6,70c-4,0.8 -8.4,0.4 -12.3,1.3l0.3,0.3c37.4,2.2 75.3,-5.7 108.8,-22.3c26.2,-12.9 49.7,-31.1 68.9,-53.1c19.5,-22.3 34.3,-48.5 44,-76.4c-0.2,3.4 -2.1,6.4 -2.9,9.7c-18.3,57.9 -60.7,107.5 -114.9,135c-32.3,16.7 -68.6,25.1 -104.9,25.3c0.1,-20.4 -0.1,-40.8 -0.1,-61.3c-33.2,0.1 -66.2,-10 -93.8,-28.3c-29.2,-19.2 -52.1,-47.7 -64.7,-80.4c-12.6,-32 -14.8,-67.9 -6.7,-101.4c7.7,-32 25,-61.7 49.1,-84.2c26.9,-25.3 62.3,-41.3 99,-45z" class="st2"/>
   </g>
   <g id="_x23_b3b3b3ff">
    <path id="svg_5" fill="#B3B3B3" d="m527.4,160.60001c73.6,-2.6 147.9,16.8 210.7,55.3c57.3,34.9 105.1,85.1 136.9,144.2c31.2,57.3 46.9,122.8 45.7,188c-1,64.2 -18.8,128.1 -51,183.6c-35.1,60.8 -87.4,111.6 -149.3,144.8c-54.5,29.5 -116.4,45.1 -178.4,45.3c-67,0.5 -133.9,-17.2 -191.9,-50.7c-58.5,-33.7 -107.8,-83.2 -141.1,-142c-36.4,-63.6 -53.4,-138 -48.9,-211.1c3.6,-62.2 22.9,-123.3 55.6,-176.3c34.6,-56.5 84.3,-103.7 142.6,-135.3c51.8,-28.2 110.2,-44 169.1,-45.8m1.1,30.1c-31.6,0.9 -63,6.3 -93.1,15.7c-57,17.7 -109.2,50.4 -150.1,93.9c-42.1,44.4 -72.3,100 -86.3,159.6c-12.1,51 -12.6,104.6 -1.5,155.8c13.3,62 44.1,120.2 87.8,166.2c42.1,44.8 96.3,78.1 155.2,95.4c71.5,21.3 149.9,18.8 220,-6.9c56.2,-20.5 106.9,-55.8 145.8,-101.2c40.3,-46.8 67.8,-104.4 78.7,-165.1c12.6,-69.1 4.1,-142 -24.8,-206.2c-26.9,-60.4 -71.5,-112.8 -126.7,-149.3c-60.1,-40 -132.9,-60.5 -205,-57.9z" class="st3"/>
   </g>
   <g id="_x23_ffffffff">
    <path id="svg_6" fill="#FFFFFF" d="m528.5,190.70001c72.1,-2.6 144.9,17.9 205,57.9c55.2,36.5 99.7,88.9 126.7,149.3c28.8,64.1 37.4,137 24.8,206.2c-10.9,60.7 -38.5,118.3 -78.7,165.1c-38.9,45.4 -89.6,80.7 -145.8,101.2c-70.1,25.7 -148.4,28.1 -220,6.9c-59,-17.3 -113.1,-50.7 -155.2,-95.4c-43.7,-46 -74.5,-104.1 -87.8,-166.2c-11.1,-51.2 -10.6,-104.9 1.5,-155.8c14,-59.6 44.2,-115.2 86.3,-159.6c40.9,-43.4 93.1,-76.2 150.1,-93.9c30.1,-9.4 61.5,-14.7 93.1,-15.7m11.4,18.6c0,27.2 0,54.3 0,81.5c56.6,-0.2 113,19.8 157,55.3c23.9,19.3 44.3,42.9 59.6,69.5c21.6,37.3 33.6,80.3 33.7,123.5c0.2,34.3 -6.5,68.6 -20,100.1c-12.5,29.1 -30.4,55.9 -52.8,78.3c-43.6,44.2 -104.3,71 -166.4,73.6c-12,0.6 -24,-0.3 -36,-0.6c-37.8,-1.7 -75.1,-12.1 -108.3,-30.1c-28.3,-15.3 -53.7,-35.9 -74.5,-60.4c-23.2,-27.4 -40.6,-59.5 -51.1,-93.8c-12.3,-40 -14.9,-83 -7.7,-124.3c6.4,-37.1 20.5,-72.8 41.1,-104.3c26.8,-41 64.5,-74.7 108.2,-96.7c35.8,-18.2 75.4,-28.7 115.5,-30.9c-77.3,-3.6 -155.2,25.8 -211.8,78.3c-39.2,35.8 -68.3,82.4 -84.2,132.9c-13.6,42.7 -17.4,88.5 -11.7,132.9c8.9,68.8 41,134.4 90.1,183.4c46.7,47.2 108.2,79.4 173.5,90.9c21.7,4.4 43.9,5 65.9,3.8c48.1,-2.8 95.5,-16.5 137.8,-39.4c44.2,-23.6 82.6,-57.7 111.8,-98.4c37.9,-52.6 59.8,-116.5 62,-181.3c2.8,-68.1 -16.6,-136.7 -53.8,-193.7c-18,-27.7 -40.3,-52.4 -65.6,-73.6c-59,-49 -135.5,-76.8 -212.3,-76.5m-17,162.6c-36.7,3.7 -72.1,19.7 -99,45c-24.1,22.5 -41.4,52.1 -49.1,84.2c-8.1,33.4 -5.8,69.3 6.7,101.4c12.6,32.6 35.5,61.1 64.7,80.4c27.6,18.3 60.7,28.3 93.8,28.3c0,20.4 0.2,40.8 0.1,61.3c36.3,-0.1 72.6,-8.6 104.9,-25.3c54.2,-27.4 96.6,-77 115.1,-134.8c0.8,-3.3 2.7,-6.3 2.9,-9.7c-9.7,27.9 -24.6,54.1 -44,76.4c-19.2,21.9 -42.7,40.2 -68.9,53.1c-33.6,16.6 -71.4,24.5 -108.8,22.3l-0.3,-0.3c3.9,-0.9 8.3,-0.5 12.3,-1.3c50.1,-6.3 97.8,-31.4 130.6,-70c23.4,-27 39,-60.5 45.1,-95.6c6.3,-36.9 1.5,-75.8 -14,-109.9c-12.9,-28.6 -33.2,-53.9 -58.7,-72.3c-29.7,-21.7 -66.3,-33.9 -103.1,-33.5c-10.2,-0.5 -20.3,-0.8 -30.3,0.3z" class="st4"/>
   </g>
  </g>
 </g>
</svg>