<svg width="361" height="31" viewBox="0 0 361 31" fill="none" xmlns="http://www.w3.org/2000/svg">
<path d="M1.504 24.9082C1.29067 24.9082 1.13067 24.8442 1.024 24.7162C0.917333 24.5669 0.885333 24.3855 0.928 24.1722L5.376 3.2762C5.41867 3.04154 5.51467 2.8602 5.664 2.7322C5.83467 2.58287 6.02667 2.5082 6.24 2.5082H14.144C15.36 2.5082 16.4267 2.65753 17.344 2.9562C18.2827 3.23354 19.04 3.6602 19.616 4.2362C20.192 4.8122 20.576 5.52687 20.768 6.3802C20.9813 7.23354 20.96 8.22554 20.704 9.3562C20.2347 11.6175 19.232 13.3242 17.696 14.4762C16.16 15.6069 14.1867 16.1722 11.776 16.1722H5.824L4.128 24.1722C4.08533 24.3855 3.97867 24.5669 3.808 24.7162C3.65867 24.8442 3.46667 24.9082 3.232 24.9082H1.504ZM6.368 13.4842H11.712C13.2053 13.4842 14.4747 13.1322 15.52 12.4282C16.5653 11.7242 17.2373 10.7002 17.536 9.3562C17.7067 8.4602 17.7387 7.71354 17.632 7.1162C17.5253 6.49754 17.1733 6.0282 16.576 5.7082C15.9787 5.36687 15.0613 5.1962 13.824 5.1962H8.128L6.368 13.4842ZM27.9865 25.2282C26.4292 25.2282 25.1492 24.9189 24.1465 24.3002C23.1438 23.6815 22.4398 22.8282 22.0345 21.7402C21.6505 20.6309 21.5758 19.3722 21.8105 17.9642C21.8532 17.6015 21.9385 17.1429 22.0665 16.5882C22.1945 16.0122 22.3118 15.5535 22.4185 15.2122C22.7598 13.7829 23.3145 12.5242 24.0825 11.4362C24.8505 10.3482 25.8318 9.49487 27.0265 8.8762C28.2212 8.25754 29.6185 7.9482 31.2185 7.9482C32.7972 7.9482 34.0878 8.25754 35.0905 8.8762C36.0932 9.49487 36.7972 10.3482 37.2025 11.4362C37.6078 12.5242 37.6825 13.7829 37.4265 15.2122C37.3625 15.5535 37.2665 16.0122 37.1385 16.5882C37.0318 17.1429 36.9358 17.6015 36.8505 17.9642C36.4878 19.3722 35.9225 20.6309 35.1545 21.7402C34.4078 22.8282 33.4372 23.6815 32.2425 24.3002C31.0478 24.9189 29.6292 25.2282 27.9865 25.2282ZM28.1145 22.7642C29.4585 22.7642 30.6425 22.3482 31.6665 21.5162C32.6905 20.6629 33.4052 19.4255 33.8105 17.8042C33.8958 17.4842 33.9918 17.0789 34.0985 16.5882C34.2052 16.0975 34.2905 15.6922 34.3545 15.3722C34.6318 13.7509 34.4932 12.5242 33.9385 11.6922C33.3838 10.8389 32.4345 10.4122 31.0905 10.4122C29.7678 10.4122 28.5945 10.8389 27.5705 11.6922C26.5465 12.5242 25.8318 13.7509 25.4265 15.3722C25.3412 15.6922 25.2452 16.0975 25.1385 16.5882C25.0318 17.0789 24.9572 17.4842 24.9145 17.8042C24.6158 19.4255 24.7332 20.6629 25.2665 21.5162C25.8212 22.3482 26.7705 22.7642 28.1145 22.7642ZM43.4927 24.9082C43.2154 24.9082 43.0127 24.8442 42.8847 24.7162C42.7567 24.5669 42.6714 24.3642 42.6287 24.1082L41.2207 9.0682C41.1994 8.85487 41.2527 8.67354 41.3807 8.5242C41.5301 8.35354 41.7434 8.2682 42.0207 8.2682H43.3327C43.5674 8.2682 43.7381 8.32154 43.8447 8.4282C43.9514 8.51354 44.0154 8.64154 44.0367 8.8122L45.0928 20.8762L51.3647 8.9402C51.4501 8.79087 51.5674 8.64154 51.7168 8.4922C51.8661 8.34287 52.0794 8.2682 52.3568 8.2682H53.5408C53.8181 8.2682 53.9994 8.34287 54.0848 8.4922C54.1914 8.64154 54.2554 8.79087 54.2768 8.9402L55.5888 20.8762L61.7327 8.8122C61.7754 8.70554 61.8608 8.5882 61.9888 8.4602C62.1168 8.3322 62.2981 8.2682 62.5328 8.2682H64.1328C64.4314 8.2682 64.6021 8.3642 64.6448 8.5562C64.7088 8.72687 64.6874 8.92954 64.5808 9.1642L56.9008 24.1082C56.7514 24.3642 56.5914 24.5669 56.4207 24.7162C56.2501 24.8442 56.0154 24.9082 55.7168 24.9082H54.4048C54.1274 24.9082 53.9141 24.8442 53.7648 24.7162C53.6154 24.5669 53.5194 24.3642 53.4768 24.1082L52.1007 12.6522L46.0528 24.1082C45.9034 24.3642 45.7328 24.5669 45.5408 24.7162C45.3487 24.8442 45.1034 24.9082 44.8047 24.9082H43.4927ZM71.5588 25.2282C70.1081 25.2282 68.9028 24.9189 67.9428 24.3002C67.0041 23.6815 66.3534 22.8069 65.9908 21.6762C65.6281 20.5242 65.5534 19.1802 65.7668 17.6442C65.8094 17.3669 65.8734 17.0149 65.9588 16.5882C66.0654 16.1402 66.1614 15.7775 66.2468 15.5002C66.6734 13.9855 67.3028 12.6629 68.1348 11.5322C68.9881 10.3802 70.0228 9.49487 71.2388 8.8762C72.4548 8.25754 73.7881 7.9482 75.2388 7.9482C76.8601 7.9482 78.1401 8.28954 79.0788 8.9722C80.0174 9.65487 80.6468 10.6255 80.9668 11.8842C81.2868 13.1429 81.2761 14.6149 80.9348 16.3002L80.8068 16.8442C80.7641 17.0789 80.6468 17.2602 80.4548 17.3882C80.2841 17.5162 80.0921 17.5802 79.8788 17.5802H68.8388C68.8388 17.6015 68.8281 17.6442 68.8068 17.7082C68.8068 17.7722 68.7961 17.8255 68.7748 17.8682C68.6468 18.7429 68.6681 19.5642 68.8388 20.3322C69.0094 21.0789 69.3614 21.6869 69.8948 22.1562C70.4494 22.6255 71.1748 22.8602 72.0708 22.8602C72.8388 22.8602 73.5001 22.7429 74.0548 22.5082C74.6308 22.2735 75.1001 22.0175 75.4628 21.7402C75.8254 21.4415 76.0814 21.2175 76.2308 21.0682C76.4868 20.7909 76.6681 20.6309 76.7748 20.5882C76.9028 20.5242 77.0948 20.4922 77.3508 20.4922H78.8868C79.0788 20.4922 79.2281 20.5562 79.3348 20.6842C79.4414 20.7909 79.4734 20.9509 79.4308 21.1642C79.3454 21.4842 79.0894 21.8789 78.6628 22.3482C78.2574 22.7962 77.7028 23.2442 76.9988 23.6922C76.3161 24.1402 75.5161 24.5135 74.5988 24.8122C73.6814 25.0895 72.6681 25.2282 71.5588 25.2282ZM69.3188 15.3722H78.0548L78.0868 15.2762C78.3428 14.3162 78.3641 13.4629 78.1508 12.7162C77.9588 11.9695 77.5748 11.3829 76.9988 10.9562C76.4228 10.5082 75.6761 10.2842 74.7588 10.2842C73.8414 10.2842 73.0201 10.5082 72.2948 10.9562C71.5694 11.3829 70.9508 11.9695 70.4388 12.7162C69.9481 13.4629 69.5854 14.3162 69.3508 15.2762L69.3188 15.3722ZM83.3225 24.9082C83.1092 24.9082 82.9385 24.8442 82.8105 24.7162C82.7038 24.5669 82.6718 24.3855 82.7145 24.1722L85.9465 9.0362C85.9892 8.82287 86.0958 8.64154 86.2665 8.4922C86.4372 8.34287 86.6292 8.2682 86.8425 8.2682H88.3145C88.5278 8.2682 88.6878 8.34287 88.7945 8.4922C88.9225 8.64154 88.9652 8.82287 88.9225 9.0362L88.6025 10.4442C89.0932 9.71887 89.7438 9.17487 90.5545 8.8122C91.3865 8.44954 92.3465 8.2682 93.4345 8.2682H94.8105C95.0238 8.2682 95.1732 8.34287 95.2585 8.4922C95.3652 8.6202 95.3972 8.79087 95.3545 9.0042L95.0985 10.3162C95.0558 10.5295 94.9492 10.7002 94.7785 10.8282C94.6292 10.9562 94.4372 11.0202 94.2025 11.0202H92.3145C91.1625 11.0202 90.1812 11.3615 89.3705 12.0442C88.5598 12.7055 88.0265 13.6122 87.7705 14.7642L85.7865 24.1722C85.7438 24.3855 85.6372 24.5669 85.4665 24.7162C85.2958 24.8442 85.1038 24.9082 84.8905 24.9082H83.3225ZM101.723 25.2282C100.272 25.2282 99.0665 24.9189 98.1065 24.3002C97.1678 23.6815 96.5172 22.8069 96.1545 21.6762C95.7918 20.5242 95.7172 19.1802 95.9305 17.6442C95.9732 17.3669 96.0372 17.0149 96.1225 16.5882C96.2292 16.1402 96.3252 15.7775 96.4105 15.5002C96.8372 13.9855 97.4665 12.6629 98.2985 11.5322C99.1518 10.3802 100.187 9.49487 101.403 8.8762C102.619 8.25754 103.952 7.9482 105.403 7.9482C107.024 7.9482 108.304 8.28954 109.243 8.9722C110.181 9.65487 110.811 10.6255 111.131 11.8842C111.451 13.1429 111.44 14.6149 111.099 16.3002L110.971 16.8442C110.928 17.0789 110.811 17.2602 110.619 17.3882C110.448 17.5162 110.256 17.5802 110.043 17.5802H99.0025C99.0025 17.6015 98.9918 17.6442 98.9705 17.7082C98.9705 17.7722 98.9598 17.8255 98.9385 17.8682C98.8105 18.7429 98.8318 19.5642 99.0025 20.3322C99.1732 21.0789 99.5252 21.6869 100.059 22.1562C100.613 22.6255 101.339 22.8602 102.235 22.8602C103.003 22.8602 103.664 22.7429 104.219 22.5082C104.795 22.2735 105.264 22.0175 105.627 21.7402C105.989 21.4415 106.245 21.2175 106.395 21.0682C106.651 20.7909 106.832 20.6309 106.939 20.5882C107.067 20.5242 107.259 20.4922 107.515 20.4922H109.051C109.243 20.4922 109.392 20.5562 109.499 20.6842C109.605 20.7909 109.637 20.9509 109.595 21.1642C109.509 21.4842 109.253 21.8789 108.827 22.3482C108.421 22.7962 107.867 23.2442 107.163 23.6922C106.48 24.1402 105.68 24.5135 104.763 24.8122C103.845 25.0895 102.832 25.2282 101.723 25.2282ZM99.4825 15.3722H108.219L108.251 15.2762C108.507 14.3162 108.528 13.4629 108.315 12.7162C108.123 11.9695 107.739 11.3829 107.163 10.9562C106.587 10.5082 105.84 10.2842 104.923 10.2842C104.005 10.2842 103.184 10.5082 102.459 10.9562C101.733 11.3829 101.115 11.9695 100.603 12.7162C100.112 13.4629 99.7492 14.3162 99.5145 15.2762L99.4825 15.3722ZM118.99 25.2282C117.817 25.2282 116.836 25.0255 116.046 24.6202C115.257 24.1935 114.649 23.6282 114.222 22.9242C113.796 22.1989 113.529 21.3775 113.422 20.4602C113.316 19.5429 113.337 18.5722 113.486 17.5482C113.55 17.2069 113.614 16.8869 113.678 16.5882C113.742 16.2895 113.817 15.9695 113.902 15.6282C114.158 14.6255 114.51 13.6762 114.958 12.7802C115.406 11.8629 115.961 11.0415 116.622 10.3162C117.284 9.56954 118.073 8.99354 118.99 8.5882C119.929 8.16154 121.006 7.9482 122.222 7.9482C123.545 7.9482 124.58 8.1722 125.326 8.6202C126.094 9.0682 126.66 9.62287 127.022 10.2842L128.622 2.9242C128.665 2.71087 128.761 2.5402 128.91 2.4122C129.081 2.26287 129.273 2.1882 129.486 2.1882H131.022C131.257 2.1882 131.428 2.26287 131.534 2.4122C131.641 2.5402 131.673 2.71087 131.63 2.9242L127.086 24.1722C127.044 24.3855 126.948 24.5669 126.798 24.7162C126.649 24.8442 126.457 24.9082 126.222 24.9082H124.782C124.569 24.9082 124.398 24.8442 124.27 24.7162C124.164 24.5669 124.132 24.3855 124.174 24.1722L124.462 22.8282C123.801 23.5109 123.054 24.0869 122.222 24.5562C121.412 25.0042 120.334 25.2282 118.99 25.2282ZM119.63 22.6362C120.697 22.6362 121.636 22.3909 122.446 21.9002C123.257 21.4095 123.908 20.7909 124.398 20.0442C124.91 19.2762 125.262 18.4975 125.454 17.7082C125.561 17.3669 125.657 16.9615 125.742 16.4922C125.849 16.0015 125.934 15.5855 125.998 15.2442C126.148 14.4975 126.137 13.7615 125.966 13.0362C125.817 12.3109 125.465 11.7135 124.91 11.2442C124.377 10.7749 123.588 10.5402 122.542 10.5402C121.54 10.5402 120.665 10.7855 119.918 11.2762C119.193 11.7455 118.585 12.3749 118.094 13.1642C117.625 13.9322 117.252 14.7642 116.974 15.6602C116.889 15.9802 116.814 16.2895 116.75 16.5882C116.686 16.8869 116.633 17.1962 116.59 17.5162C116.462 18.4122 116.441 19.2549 116.526 20.0442C116.633 20.8122 116.921 21.4415 117.39 21.9322C117.881 22.4015 118.628 22.6362 119.63 22.6362ZM148.326 25.2282C147.046 25.2282 146.001 25.0042 145.19 24.5562C144.401 24.0869 143.825 23.5109 143.462 22.8282L143.174 24.1722C143.132 24.3855 143.025 24.5669 142.854 24.7162C142.684 24.8442 142.492 24.9082 142.278 24.9082H140.806C140.593 24.9082 140.433 24.8442 140.326 24.7162C140.22 24.5669 140.188 24.3855 140.23 24.1722L144.742 2.9242C144.785 2.71087 144.892 2.5402 145.062 2.4122C145.233 2.26287 145.425 2.1882 145.638 2.1882H147.174C147.409 2.1882 147.569 2.26287 147.654 2.4122C147.761 2.5402 147.793 2.71087 147.75 2.9242L146.214 10.2842C146.876 9.62287 147.622 9.0682 148.454 8.6202C149.286 8.1722 150.321 7.9482 151.558 7.9482C152.753 7.9482 153.745 8.16154 154.534 8.5882C155.324 8.99354 155.932 9.5482 156.358 10.2522C156.785 10.9349 157.052 11.7349 157.158 12.6522C157.286 13.5482 157.265 14.4975 157.094 15.5002C157.03 15.8415 156.956 16.2042 156.87 16.5882C156.806 16.9722 156.721 17.3349 156.614 17.6762C156.294 19.0202 155.782 20.2682 155.078 21.4202C154.374 22.5509 153.468 23.4682 152.358 24.1722C151.249 24.8762 149.905 25.2282 148.326 25.2282ZM148.006 22.6362C149.073 22.6362 149.969 22.4015 150.694 21.9322C151.42 21.4415 152.017 20.8122 152.486 20.0442C152.977 19.2549 153.35 18.4122 153.606 17.5162C153.713 17.1962 153.798 16.8869 153.862 16.5882C153.926 16.2895 153.969 15.9802 153.99 15.6602C154.14 14.7642 154.172 13.9322 154.086 13.1642C154.001 12.3749 153.724 11.7455 153.254 11.2762C152.785 10.7855 151.996 10.5402 150.886 10.5402C149.862 10.5402 148.945 10.7749 148.134 11.2442C147.345 11.7135 146.694 12.3109 146.182 13.0362C145.67 13.7615 145.318 14.4975 145.126 15.2442C145.041 15.5855 144.945 16.0015 144.838 16.4922C144.753 16.9615 144.689 17.3669 144.646 17.7082C144.497 18.4975 144.486 19.2762 144.614 20.0442C144.742 20.7909 145.073 21.4095 145.606 21.9002C146.14 22.3909 146.94 22.6362 148.006 22.6362ZM160.048 30.9882C159.792 30.9882 159.621 30.8815 159.536 30.6682C159.45 30.4549 159.504 30.2095 159.696 29.9322L163.632 23.7882L160.496 9.1322C160.453 8.91887 160.485 8.72687 160.592 8.5562C160.698 8.3642 160.912 8.2682 161.232 8.2682H162.64C162.874 8.2682 163.045 8.32154 163.152 8.4282C163.258 8.51354 163.322 8.64154 163.344 8.8122L165.776 20.4922L173.296 8.8122C173.381 8.66287 173.498 8.53487 173.648 8.4282C173.797 8.32154 173.989 8.2682 174.224 8.2682H175.888C176.08 8.2682 176.24 8.35354 176.368 8.5242C176.517 8.69487 176.506 8.91887 176.336 9.1962L162.608 30.4442C162.501 30.5935 162.373 30.7215 162.224 30.8282C162.096 30.9349 161.914 30.9882 161.68 30.9882H160.048Z" fill="white" fill-opacity="0.5"/>
<path d="M194.547 26.8155C192.617 26.8155 191.173 26.3179 190.226 25.3348C189.401 24.4974 189 23.405 189 22.0578C189 21.5723 189.049 21.099 189.158 20.6135L189.789 17.3365H194.146L193.515 20.6135C193.467 20.9048 193.43 21.1597 193.43 21.366C193.43 21.8515 193.54 22.1913 193.746 22.4098C194.037 22.7011 194.547 22.8467 195.287 22.8467C196.028 22.8467 196.623 22.7011 196.987 22.4098C197.436 22.1185 197.751 21.5238 197.933 20.6135L198.249 19.0235C198.298 18.7323 198.334 18.5138 198.334 18.3681C198.334 17.5064 198.006 16.7539 197.339 16.1349C197.096 15.9165 196.598 15.6009 195.834 15.2004C194.644 14.5328 193.831 13.9988 193.418 13.6104C192.119 12.3846 191.476 10.916 191.476 9.21679C191.476 8.68276 191.525 8.22156 191.634 7.8089L191.755 7.20204C192.132 5.21156 193.09 3.63374 194.644 2.48072C195.967 1.49762 197.594 1 199.523 1C201.453 1 202.837 1.49762 203.845 2.48072C204.658 3.31818 205.07 4.41052 205.07 5.75773C205.07 6.24321 205.022 6.71656 204.913 7.20204L204.476 9.39885H200.118L200.555 7.20204C200.604 6.91075 200.64 6.65587 200.64 6.44954C200.64 5.96406 200.519 5.62422 200.276 5.40576C200.009 5.11447 199.499 4.96882 198.735 4.96882C198.018 4.96882 197.46 5.11447 197.035 5.40576C196.768 5.59995 196.562 5.86696 196.428 6.19467C196.283 6.5345 196.186 6.8622 196.137 7.20204L196.016 7.8089C195.967 8.14873 195.931 8.37934 195.931 8.52498C195.931 9.33817 196.258 10.0543 196.926 10.649C197.035 10.7461 197.229 10.8796 197.521 11.0616C197.812 11.2437 198.067 11.3893 198.273 11.5107C199.511 12.1661 200.361 12.7123 200.81 13.1735C202.097 14.4236 202.752 15.9286 202.752 17.6763C202.752 18.089 202.716 18.5259 202.631 19.0114L202.315 20.6014C201.939 22.5918 200.98 24.1697 199.426 25.3227C198.055 26.3058 196.428 26.8034 194.547 26.8034V26.8155Z" fill="white" fill-opacity="0.5"/>
<path d="M217.38 1.30664H221.737L216.858 26.5275H212.501L214.637 15.5798H210.194L208.058 26.5275H203.701L208.58 1.30664H212.938L210.959 11.611H215.402L217.38 1.30664Z" fill="white" fill-opacity="0.5"/>
<path d="M226.218 26.8112C224.288 26.8112 222.844 26.3136 221.897 25.3305C221.072 24.493 220.671 23.4007 220.671 22.0535C220.671 21.568 220.72 21.0947 220.829 20.6092L223.439 7.20985C223.815 5.21937 224.774 3.64156 226.328 2.48853C227.651 1.50543 229.277 1.00781 231.207 1.00781C233.137 1.00781 234.521 1.50543 235.528 2.48853C236.341 3.32599 236.754 4.41833 236.754 5.76554C236.754 6.25102 236.705 6.72437 236.596 7.20985L233.987 20.6092C233.61 22.5997 232.651 24.1775 231.098 25.3305C229.726 26.3136 228.1 26.8112 226.218 26.8112ZM230.418 4.97663C229.702 4.97663 229.144 5.12228 228.719 5.41357C228.452 5.60776 228.245 5.87478 228.112 6.20248C227.966 6.54231 227.869 6.87002 227.821 7.20985L225.211 20.6092C225.162 20.9005 225.126 21.1553 225.126 21.3617C225.126 21.8472 225.235 22.187 225.442 22.4055C225.733 22.6967 226.243 22.8424 226.983 22.8424C227.723 22.8424 228.318 22.6967 228.682 22.4055C229.131 22.1142 229.447 21.5195 229.629 20.6092L232.239 7.20985C232.287 6.91856 232.324 6.66368 232.324 6.45736C232.324 5.97187 232.202 5.63203 231.96 5.41357C231.693 5.12228 231.183 4.97663 230.418 4.97663Z" fill="white" fill-opacity="0.5"/>
<path d="M243.268 26.4708H238.911L243.038 5.21882H238.595L239.348 1.25H248.148L243.268 26.4708Z" fill="white" fill-opacity="0.5"/>
<path d="M269.283 26.5275H264.84L264.561 16.4051H262.583L260.604 26.5275H256.247L261.114 1.30664H267.693C269.598 1.30664 271.03 1.8164 272.014 2.82377C272.827 3.66123 273.24 4.74143 273.24 6.06437C273.24 6.54985 273.191 7.0232 273.082 7.50868L272.56 10.2152C272.184 12.23 271.225 13.8078 269.671 14.9366C269.453 15.1065 269.21 15.2643 268.918 15.3978L269.283 26.5275ZM268.724 7.50868C268.773 7.21739 268.809 6.96251 268.809 6.75618C268.809 6.2707 268.7 5.93086 268.494 5.71239C268.202 5.4211 267.693 5.27546 266.952 5.27546H264.731L263.347 12.4485H265.568C266.285 12.4485 266.843 12.3028 267.268 12.0115C267.741 11.6717 268.057 11.077 268.214 10.2152L268.736 7.50868H268.724Z" fill="white" fill-opacity="0.5"/>
<path d="M282.002 26.5275V22.5344H277.013L275.423 26.5275H270.98L281.407 1.30664H285.764L286.444 26.5275H282.002ZM278.518 18.5655H282.002V9.52343L278.518 18.5655Z" fill="white" fill-opacity="0.5"/>
<path d="M294.565 26.8112C292.683 26.8112 291.251 26.3136 290.244 25.3305C289.418 24.4202 289.018 23.3157 289.018 22.0171C289.018 21.7501 289.066 21.2888 289.175 20.6092L291.785 7.20985C292.161 5.26792 293.12 3.6901 294.674 2.48853C296.045 1.50543 297.672 1.00781 299.553 1.00781C301.435 1.00781 302.867 1.50543 303.874 2.48853C304.688 3.32599 305.1 4.41833 305.1 5.76554C305.1 6.25102 305.052 6.72437 304.942 7.20985L304.505 9.44307H300.148L300.585 7.20985C300.633 6.87002 300.67 6.61514 300.67 6.42094C300.67 5.97187 300.561 5.63203 300.354 5.41357C300.063 5.12228 299.529 4.97663 298.764 4.97663C298.048 4.97663 297.478 5.12228 297.065 5.41357C296.798 5.60776 296.592 5.87478 296.458 6.20248C296.312 6.54231 296.215 6.87002 296.167 7.20985L293.557 20.6092C293.509 20.9005 293.472 21.1553 293.472 21.3617C293.472 21.8472 293.581 22.187 293.788 22.4055C294.079 22.6967 294.589 22.8424 295.329 22.8424C296.07 22.8424 296.652 22.6967 297.077 22.4055C297.502 22.0899 297.805 21.4952 297.987 20.6092L298.619 17.3686H302.976L302.345 20.6092C301.969 22.5997 301.01 24.1775 299.456 25.3305C298.085 26.3136 296.458 26.8112 294.577 26.8112H294.565Z" fill="white" fill-opacity="0.5"/>
<path d="M314.738 13.2738L317.748 26.5396H313.075L311.255 18.4685L309.155 21.5998L308.208 26.5396H303.851L308.718 1.30664H313.075L311.097 11.5382L317.906 1.30664H322.616L314.726 13.2617L314.738 13.2738Z" fill="white" fill-opacity="0.5"/>
<path d="M335.468 5.27699H328.331L327.105 11.6125H332.02L331.268 15.5814H326.352L324.968 22.5723H332.105L331.353 26.5411H319.858L324.714 1.32031H336.208L335.456 5.28913L335.468 5.27699Z" fill="white" fill-opacity="0.5"/>
<path d="M347.084 26.5275H342.642L342.363 16.4051H340.384L338.406 26.5275H334.048L338.916 1.30664H345.494C347.4 1.30664 348.832 1.8164 349.815 2.82377C350.629 3.66123 351.041 4.74143 351.041 6.06437C351.041 6.54985 350.993 7.0232 350.883 7.50868L350.362 10.2152C349.985 12.23 349.026 13.8078 347.473 14.9366C347.254 15.1065 347.012 15.2643 346.72 15.3978L347.084 26.5275ZM346.526 7.50868C346.575 7.21739 346.611 6.96251 346.611 6.75618C346.611 6.2707 346.502 5.93086 346.295 5.71239C346.004 5.4211 345.494 5.27546 344.754 5.27546H342.533L341.149 12.4485H343.37C344.086 12.4485 344.645 12.3028 345.069 12.0115C345.543 11.6717 345.858 11.077 346.016 10.2152L346.538 7.50868H346.526Z" fill="white" fill-opacity="0.5"/>
<path d="M250.068 1.25L249.328 5.21882L245.213 26.4708H249.57L253.661 5.21882H253.673H253.685H258.407L259.159 1.25H250.068Z" fill="white" fill-opacity="0.5"/>
<path d="M358.611 1.76276C359.032 2.01085 359.38 2.35818 359.628 2.82955C359.876 3.30092 360 3.77229 360 4.3429C360 4.9135 359.876 5.40968 359.628 5.85625C359.38 6.30281 359.032 6.65013 358.611 6.89822C358.189 7.14631 357.693 7.27036 357.172 7.27036C356.651 7.27036 356.154 7.14631 355.733 6.89822C355.311 6.65013 354.964 6.30281 354.715 5.85625C354.467 5.40968 354.343 4.9135 354.343 4.3429C354.343 3.77229 354.467 3.27611 354.715 2.82955C354.964 2.38299 355.311 2.03566 355.733 1.76276C356.154 1.48986 356.651 1.39062 357.172 1.39062C357.693 1.39062 358.189 1.51467 358.611 1.76276ZM358.511 6.72456C358.908 6.47647 359.231 6.15395 359.454 5.7322C359.678 5.31045 359.802 4.83908 359.802 4.31809C359.802 3.7971 359.702 3.32573 359.454 2.90397C359.206 2.48222 358.908 2.1597 358.511 1.91161C358.114 1.66352 357.668 1.56429 357.172 1.56429C356.675 1.56429 356.229 1.68833 355.832 1.91161C355.435 2.1597 355.112 2.48222 354.889 2.90397C354.666 3.32573 354.542 3.7971 354.542 4.31809C354.542 4.83908 354.641 5.31045 354.889 5.7322C355.137 6.15395 355.435 6.47647 355.832 6.72456C356.229 6.97265 356.675 7.07189 357.172 7.07189C357.668 7.07189 358.114 6.94784 358.511 6.72456ZM358.487 5.98029H358.288L357.395 4.59099H356.378V5.98029H356.204V2.65588H357.345C357.593 2.65588 357.817 2.7055 357.966 2.77993C358.139 2.87917 358.263 3.00321 358.363 3.15206C358.462 3.30092 358.487 3.44977 358.487 3.62344C358.487 3.84672 358.412 4.04519 358.263 4.21885C358.114 4.39251 357.891 4.49175 357.593 4.54137L358.487 5.95548V5.98029ZM358.04 4.19404C358.214 4.04519 358.288 3.87153 358.288 3.67305C358.288 3.44977 358.214 3.27611 358.04 3.10245C357.866 2.92878 357.643 2.85436 357.321 2.85436H356.353V4.41732H357.321C357.643 4.41732 357.866 4.3429 358.04 4.19404Z" fill="white" fill-opacity="0.5" stroke="white" stroke-opacity="0.5" stroke-width="1.45567"/>
</svg>
