<svg width="1080" height="1080" xmlns="http://www.w3.org/2000/svg" xml:space="preserve" version="1.1">
 <defs>
  <radialGradient gradientTransform="matrix(1,0,0,1,-242,120.10000609606504)" gradientUnits="userSpaceOnUse" r="540" cy="419.89" cx="782" id="SVGID_1_">
   <stop stop-color="#B60120" offset="0.7295"/>
   <stop stop-color="#FFFFFF" offset="1"/>
  </radialGradient>
 </defs>
 <g>
  <title>Layer 1</title>
  <g id="svg_14">
   <circle id="svg_1" fill="url(#SVGID_1_)" r="540" cy="540.00001" cx="540" class="st0"/>
   <g id="_x23_b60120db">
    <path id="svg_2" enable-background="new" fill="#B60120" d="m540,208.20001c76.8,-0.4 153.2,27.5 212.2,76.6c25.4,21.3 47.9,46.2 65.9,74.1c36.9,56.9 56.3,125.2 53.5,193c-2.1,61.3 -21.7,121.7 -55.9,172.6c-29.7,44.4 -70.2,81.6 -117.2,106.9c-41.7,22.6 -88.2,36.3 -135.5,39.6c-21.6,1.3 -43.5,1.1 -64.9,-2.8c-65.9,-10.8 -128.2,-42.6 -175.6,-89.7c-51,-50 -84,-117.7 -92.4,-188.5c-5.4,-45.5 -0.7,-92.3 14.1,-135.8c17.3,-51.4 48.4,-98.2 89.6,-133.4c42.5,-36.8 95.6,-61 151.2,-69.1c17.6,-2.4 35.5,-3.8 53.2,-2.6c-57.5,2.8 -114,23.6 -159.7,58.7c24.4,29 48.8,58 73.1,87.1c23.8,29.1 48.3,57.6 72.3,86.5c5.5,6.4 10.7,13 16.3,19.3c26.7,-31.6 53.1,-63.3 79.7,-94.9c4.2,-5.3 8.9,-10.2 12.8,-15.7c16,-19 31.9,-38.1 47.9,-57.1c-41.2,-27.9 -90.8,-43.4 -140.5,-43.1c-0.2,-27.3 -0.2,-54.5 -0.1,-81.7m-266.5,271.9c-7.3,41.4 -4.7,84.6 7.6,124.8c10.8,35.4 29,68.6 53.4,96.5c6,7.2 19.3,20.2 19.3,20.2l0.8,-0.7c0,0 10.9,-12.8 16.4,-19.1c13.7,-16.6 27.9,-32.8 41.4,-49.7l0.4,0.6c8.1,-10.5 17,-20.5 25.5,-30.7c22.8,-27.4 46,-54.5 68.6,-82c-7,-8.9 -14.5,-17.4 -21.7,-26.1c-24.3,-28.8 -48.3,-57.8 -72.8,-86.4c-24,-28.3 -47.6,-56.8 -71.5,-85.1c-34.9,38.3 -58.4,86.7 -67.4,137.7m445.9,-114.4c-14.8,18 -29.8,35.6 -44.7,53.5c-8.2,9 -15.7,18.6 -23.6,27.8c-25.9,31 -52.1,61.8 -77.8,93c13.8,17.1 28.2,33.7 42.2,50.6c24.3,28.6 48,57.7 72.6,86c4.9,6 9.9,12 15,17.9c27.3,-25.4 47.8,-57.7 60,-92.8c-10,36.7 -29.5,70.6 -55.7,98.1c4.1,4.9 8.2,9.7 12.2,14.6c35.5,-36.5 59.6,-84 67.5,-134.3c6.8,-41.4 2.9,-84.5 -11.3,-123.9c-12.1,-33.8 -31.2,-65.1 -56.4,-90.5m-197.1,234.6c-23.5,28.4 -47.6,56.3 -70.8,84.8c-18.8,22.6 -37.9,44.9 -56.5,67.6c30.7,18.3 65,30.8 100.5,35c13.4,1.8 27,1.9 40.6,2.4c51.1,1.1 102.2,-14.5 144.5,-43.1c-4.1,-4.9 -8.2,-9.8 -12.3,-14.6c-37.6,25.3 -82.8,38.8 -128.1,38.9c0,-3.9 0,-7.8 0,-11.7c14.7,0.4 29.4,-1.1 43.9,-3.8c7.9,-1.2 15.4,-3.9 23,-5.9c7.8,-2 15.1,-5.7 22.6,-8.5c2.3,-1.1 5.2,-1.6 6.3,-4.1c8.9,-3.7 17.6,-7.8 25.9,-12.7c-3.6,-4.1 -7.1,-8.3 -10.5,-12.5c-36.9,-44.5 -74.1,-88.7 -111.3,-132.8c-6.1,7 -11.8,14.1 -17.8,21z" class="st1"/>
   </g>
   <g id="_x23_b3b3b3ff">
    <path id="svg_3" fill="#B3B3B3" d="m528.4,159.50001c74.1,-2.4 148.7,17.4 211.7,56.6c57.3,35.3 104.9,86.1 136.3,145.6c32,59.9 47.1,128.5 43.9,196.3c-2.6,57.3 -18.4,114 -46,164.3c-38.7,71.1 -100.6,129.2 -174,163.1c-54.8,25.6 -115.8,37.6 -176.3,35c-57.5,-2.3 -114.5,-17.9 -165.1,-45.4c-62.4,-33.7 -115.1,-85.2 -150.1,-147c-37.9,-66.2 -54.8,-144.1 -48.3,-220.1c5,-60.7 25,-120.2 57.7,-171.6c35,-55.2 84.4,-101.2 142,-132c51.6,-27.7 109.7,-43.1 168.2,-44.8m0,30.1c-32,1 -64,6.5 -94.5,16.1c-56.7,17.9 -108.5,50.6 -149.2,93.9c-41.7,44.1 -71.5,99.2 -85.6,158.2c-12.5,52.1 -12.9,107 -1.2,159.2c13.7,61.4 44.4,118.8 87.8,164.3c44.7,47.3 102.8,81.7 165.8,98c68,17.7 141.4,14.5 207.5,-9.5c56.5,-20.3 107.5,-55.6 146.7,-101.1c38.3,-44.3 65.2,-98.4 77.3,-155.7c15.3,-72.1 7.4,-148.9 -22.9,-216.2c-26.2,-58.7 -68.9,-109.8 -121.9,-146.1c-61,-42 -135.7,-63.8 -209.8,-61.1z" class="st2"/>
    <path id="svg_4" fill="#B3B3B3" d="m763.1,599.30001c3.3,-0.1 -1.4,3 0,0z" class="st2"/>
   </g>
   <g id="_x23_ffffffff">
    <path id="svg_5" fill="#FFFFFF" d="m528.4,189.60001c74.1,-2.7 148.8,19 209.8,61.1c53,36.3 95.7,87.4 121.9,146.1c30.3,67.2 38.2,144.1 22.9,216.2c-12.1,57.3 -39,111.4 -77.3,155.7c-39.1,45.5 -90.2,80.8 -146.7,101.1c-66.1,23.9 -139.5,27.2 -207.5,9.5c-63,-16.3 -121.1,-50.7 -165.8,-98c-43.4,-45.5 -74.1,-102.9 -87.8,-164.3c-11.7,-52.2 -11.4,-107.2 1.2,-159.2c14.1,-59 44,-114.1 85.6,-158.2c40.6,-43.3 92.5,-76 149.2,-93.9c30.6,-9.6 62.5,-15.1 94.5,-16.1m11.6,18.6c0,27.2 -0.1,54.4 0,81.5c49.8,-0.2 99.4,15.3 140.5,43.1c-16,19 -32,38.1 -47.9,57.1l-0.6,-0.8c-25.1,-13.3 -53.7,-19.4 -82,-19c-34.3,-2.2 -69.2,6.6 -98.6,24.6c-24.3,-29.1 -48.7,-58.1 -73.1,-87.1c45.7,-35.1 102.2,-55.9 159.7,-58.7c-17.8,-1.2 -35.6,0.1 -53.2,2.6c-55.6,8.1 -108.7,32.3 -151.2,69.1c-41.2,35.3 -72.3,82.1 -89.6,133.4c-14.8,43.5 -19.5,90.2 -14.1,135.8c8.4,70.9 41.5,138.6 92.4,188.5c47.4,47.1 109.7,78.9 175.6,89.7c21.4,4 43.3,4.1 64.9,2.8c47.3,-3.2 93.8,-17 135.5,-39.6c47.1,-25.3 87.5,-62.5 117.2,-106.9c34.2,-50.9 53.8,-111.3 55.9,-172.6c2.8,-67.8 -16.5,-136.1 -53.5,-193c-18,-27.9 -40.5,-52.8 -65.9,-74.1c-58.8,-48.8 -135.2,-76.7 -212,-76.4z" class="st3"/>
    <path id="svg_6" fill="#FFFFFF" d="m273.5,480.10001c9,-51 32.5,-99.4 67.4,-137.8c23.9,28.4 47.5,56.8 71.5,85.1c-23.6,27.1 -38.8,61.6 -41.8,97.5c-4.4,45.8 11.2,92.8 41.6,127.3c-13.5,16.8 -27.6,33.1 -41.4,49.7c-5.5,6.3 -16.4,19.1 -16.4,19.1l-0.8,0.7c0,0 -13.3,-13 -19.3,-20.2c-24.3,-27.9 -42.5,-61.1 -53.4,-96.5c-12.1,-40.3 -14.7,-83.5 -7.4,-124.9z" class="st3"/>
    <path id="svg_7" fill="#FFFFFF" d="m719.4,365.70001c25.3,25.4 44.3,56.7 56.4,90.4c14.2,39.5 18,82.6 11.3,123.9c-8,50.3 -32,97.8 -67.5,134.3c-4,-4.9 -8.1,-9.7 -12.2,-14.6c26.2,-27.5 45.7,-61.4 55.7,-98.1c-12.2,35.1 -32.7,67.4 -60,92.8c-5,-5.9 -10,-11.9 -15,-17.9c19.8,-24.3 33.4,-53.5 39.7,-84.2c7.5,-36.6 4.1,-75.4 -10.1,-110c-9.7,-23.8 -24.4,-45.5 -42.9,-63.2c14.7,-17.8 29.8,-35.4 44.6,-53.4m43.7,233.6c-1.4,3 3.3,-0.1 0,0z" class="st3"/>
    <path id="svg_8" fill="#FFFFFF" d="m394.9,752.70001c18.6,-22.7 37.7,-45 56.5,-67.6c26.5,16.2 57.5,25 88.5,24.9c0,16.5 0,33.1 0.1,49.6c0,3.9 0,7.8 0,11.7c45.3,0 90.5,-13.5 128.1,-38.9c4.2,4.8 8.2,9.8 12.3,14.6c-42.3,28.6 -93.4,44.2 -144.5,43.1c-13.5,-0.5 -27.1,-0.6 -40.6,-2.4c-35.4,-4.2 -69.7,-16.7 -100.4,-35z" class="st3"/>
    <path id="svg_9" fill="#FFFFFF" d="m540.6,753.00001c39.8,-2.7 78.7,-17 110.6,-40.8c3.5,4.2 6.9,8.4 10.5,12.5c-8.3,4.9 -17,9 -25.9,12.7c-30,12 -62.8,18 -95.2,15.6z" class="st3"/>
   </g>
   <g fill-opacity="0.8" id="_x23_fd012cff">
    <path id="svg_10" fill="#b60120" d="m451.4,394.90001c29.3,-18 64.2,-26.8 98.6,-24.6c28.3,-0.4 56.9,5.7 82,19l0.6,0.8c-4,5.5 -8.6,10.4 -12.8,15.7c-26.6,31.6 -53.1,63.4 -79.7,94.9c-5.6,-6.3 -10.8,-12.9 -16.3,-19.3c-24.1,-28.9 -48.6,-57.4 -72.4,-86.5z" class="st4"/>
    <path id="svg_11" fill="#b60120" d="m651,447.00001c7.9,-9.3 15.5,-18.8 23.6,-27.8c18.5,17.8 33.2,39.5 42.9,63.2c14.2,34.6 17.7,73.4 10.1,110c-6.3,30.7 -19.9,59.9 -39.7,84.2c-24.5,-28.4 -48.3,-57.4 -72.6,-86c-14,-16.9 -28.4,-33.5 -42.2,-50.6c25.8,-31.2 52,-62 77.9,-93z" class="st4"/>
    <path id="svg_12" fill="#b60120" d="m412.4,427.50001c24.5,28.6 48.4,57.7 72.8,86.4c7.2,8.7 14.7,17.2 21.7,26.1c-22.6,27.5 -45.8,54.6 -68.6,82c-8.5,10.2 -17.4,20.2 -25.5,30.7l-0.4,-0.6c-30.4,-34.5 -46,-81.5 -41.6,-127.3c2.8,-35.8 18.1,-70.2 41.6,-97.3z" class="st4"/>
    <path id="svg_13" fill="#b60120" d="m522.3,600.30001c6,-6.9 11.7,-14 17.6,-21c37.2,44.2 74.4,88.4 111.3,132.8c-32,23.8 -70.9,38.1 -110.6,40.8c32.4,2.4 65.2,-3.5 95.3,-15.6c-1.1,2.5 -4,3 -6.3,4.1c-7.5,2.8 -14.8,6.5 -22.6,8.5c-7.7,2 -15.2,4.7 -23,5.9c-14.5,2.7 -29.2,4.2 -43.9,3.8c0,-16.5 0,-33.1 -0.1,-49.6c-31.1,0.1 -62,-8.7 -88.5,-24.9c23.2,-28.6 47.3,-56.4 70.8,-84.8z" class="st4"/>
   </g>
  </g>
 </g>
</svg>